<?xml version="1.0" encoding="utf-8"?>
<!-- Generator: Adobe Illustrator 22.0.1, SVG Export Plug-In . SVG Version: 6.00 Build 0)  -->
<svg version="1.1" id="Layer_1" xmlns="http://www.w3.org/2000/svg" xmlns:xlink="http://www.w3.org/1999/xlink" x="0px" y="0px"
	 viewBox="0 0 620.6 680.9" style="enable-background:new 0 0 620.6 680.9;" xml:space="preserve">
<style type="text/css">
	.st0{fill:#BA9E40;}
	.st1{fill:#010101;}
	.st2{fill:#FAF9F9;}
	.st3{fill:#BC9D3B;}
	.st4{fill:#BA9E3C;}
	.st5{fill:#BEA03B;}
	.st6{fill:#AE9644;}
	.st7{fill:#AE9F64;}
	.st8{fill:#87753D;}
	.st9{fill:#B3A05E;}
	.st10{fill:#0A0808;}
	.st11{fill:#090506;}
	.st12{fill:#0B0708;}
	.st13{fill:#C0A235;}
	.st14{fill:#BAA147;}
	.st15{fill:#A18C50;}
	.st16{fill:#B59E50;}
	.st17{fill:#FBFCFC;}
	.st18{fill:#BC9F3B;}
	.st19{fill:#FAFBFC;}
	.st20{fill:#BC9F3C;}
	.st21{fill:#F9F8F8;}
	.st22{fill:#BA9E3E;}
	.st23{fill:#F7F7F7;}
	.st24{fill:#AD984C;}
	.st25{fill:#B69B3F;}
	.st26{fill:#F3F1F2;}
	.st27{fill:#141313;}
	.st28{fill:#100F0F;}
</style>
<g>
	<g>
		<path class="st0" d="M613.4,505.6c0-66.9,0-133.8,0-200.6c0-5.4-2-8.1-7.2-9.5c-1.5-0.1-3.1-0.2-4.6-0.2c-74.2,0-148.4,0-222.6,0
			c-1.4,0-2.8,0.2-4.3,0.3c-0.8,0.3-1.7,0.5-1.6-0.9c1.8-8.1,2.6-16.3,2.6-24.5c0-8.1-0.8-16.2-2.6-24.1
			c-4.5-20.2-14.4-37.1-29.9-50.8c-9.5-8.4-20-14.9-31.7-19.6h0c0.5-0.9,1.1-1.8,1.6-2.7c-0.1,0-0.3-0.1-0.4-0.1
			c0.1,0,0.3,0.1,0.4,0.1l0.1-0.1c0.9-0.5,1.9-1,2.8-1.4c1.5,0,3.1,0,4.6,0c24.9,0,49.8,0,74.7,0c0.7,0,1.5,0,2.2,0
			c1.1,0,2.3-0.1,3.4-0.1c1.7,1.5,3.4,2.9,5,4.5c3.7,3.7,7.3,7.4,11,11.1c0.2,0,0.5,0,0.7,0c0-0.2,0-0.5,0-0.7c0,0.2,0,0.5,0,0.7
			c-0.2,0-0.5,0-0.7,0c0,25.3,0.1,50.6,0.1,76c-0.2,1.9-0.5,3.8,1,5.3c0.1-0.3,0.2-0.7,0.3-1v0c-0.1,0.3-0.2,0.7-0.3,1
			c0,0.2,0.1,0.3,0.2,0.5c0.3,0.5,0.6,0.9,0.8,1.4c1.3,1.6,2.8,2.9,5,2.9c0,0,0,0,0,0c1.5,0.2,2.9,0.6,4.4,0.6
			c57.9,0,115.8,0,173.6,0c0.8,0,1.7,0.1,2.5,0c4-0.5,7-2.4,8.2-6.3c0.5-1.4,0.4-3,0.4-4.6c0-47,0-94,0-141.1c0-0.7,0-1.4,0-2.1
			c-0.1-2-0.7-3.8-2.1-5.2c-2.1-2.1-4.2-4.2-6.4-6.2c-1-1-2-1.9-2.9-2.9c0,0,0,0,0,0c-0.5-0.5-1-1-1.4-1.5c0,0,0,0,0,0
			c-1-1-1.9-1.9-2.9-2.9c0,0,0,0,0,0v0l0,0c-0.7-0.7-1.4-1.4-2.2-2.2c0,0,0,0,0,0c-0.2-0.3-0.5-0.5-0.7-0.8
			c-0.5-0.5-0.9-1.1-1.4-1.6c-9.2-9.3-18.5-18.5-27.7-27.8c-7.9-7.9-15.6-16-23.5-23.9C531,33.5,519.7,22.3,508.5,11
			c-2.6-2.6-5.5-3.8-9.2-3.8c-94,0-188,0.1-282,0c-4.2,0-7.3,1.4-10.1,4.3c-9.3,9.5-18.7,18.8-28,28.2c-11.3,11.5-22.6,23-33.9,34.4
			c-4.9,4.9-9.9,9.6-14.8,14.5c-7.8,7.8-15.4,15.9-23.4,23.6c-3.4,3.3-4.7,7-4.7,11.4c0,6,0,11.9,0,17.9c0,22.7,0,45.4,0,68.1
			c0,1.1-0.7,2.4,0.6,3.2c-0.5,2.4-1.2,4.8-1.6,7.2c-1.3,8-1,16.1-0.2,24.2c0.5,5.8,1.1,11.6,1.7,17.4c0.2,0.7,0.4,1.4,0.7,2.1
			c-0.2-0.7-0.4-1.4-0.7-2.1c-0.2,0.6-0.6,1.2-0.6,1.9c0,16.4,0,32.8,0,49.2c0,0.6,0.3,1.3,0.5,1.9v0c-0.4,1.2-0.7,2.5-1.3,3.6
			c-1.4,2.5-2.8,5-4.5,7.3c-6.2,8.7-13.8,15.4-24.1,18.8c-7.4,2.5-15,2.6-22.6,1.7c-1.1-0.1-2.3-0.7-3.3-1.3
			c-5.2-3-9.4-6.9-11.2-12.9c-0.6-2-1.3-4.1-1.9-6.1c-0.9-3.4-1.7-6.9-2.8-10.3c-1.1-3.6-3.5-5.3-7.2-5.2c-6.4,0-10.7,3.5-13.6,8.9
			c-2.5,4.7-3.5,9.9-3.5,15.2c0,4.2,0.4,8.3,0.7,12.5c0.6,9.6,2.7,18.8,7.8,27.2c7.3,12.2,17.2,20.8,31.2,24.3
			c7.9,2,15.9,3,24.1,3.2c3.9,0.1,7.8,0.3,11.8,0.4c0.3,1.1,0.7,2.1,0.9,3.1c1.4,5.4,4.3,9.8,8.8,13.1c1.9,1.4,3.4,2.9,4.4,5.2
			c0.9,2.1,2.8,3.9,4.5,5.4c1.5,1.2,2.2,2.6,1.8,4.3c-0.4,1.6-1,3.2-1.9,4.5c-1.9,2.8-4.1,5.3-6,8c-9.8,13.4-18.1,27.7-23.3,43.6
			c-3.9,11.9-5.4,24-3.3,36.6c2.2,13.1,14.4,33.8,30.6,39.2c2.9,1,5.5,2.7,8.2,4.1c0.8,0.9,1.4,1.8,2.3,2.7
			c7.8,7.9,15.7,15.7,23.6,23.5c24.7,24.7,49.5,49.5,74.2,74.3c2.8,2.8,5.9,4.1,9.8,4.1c46.8-0.1,93.6,0,140.4,0
			c47.3,0,94.6,0,141.9,0c3.3,0,6-1,8.4-3.3c0.8-0.8,1.5-1.5,2.3-2.3c11-11,22-22,32.9-32.9c22.2-22.2,44.4-44.4,66.6-66.6
			c2.5-2.5,3.7-5.3,3.6-8.9C613.3,541.7,613.4,523.6,613.4,505.6z M597.6,101L597.6,101c-0.1,0-0.2,0-0.4,0
			C597.4,101,597.5,101,597.6,101z M369,434.3c0.2,1.4,0.5,2.9,0.7,4.3C369.5,437.2,369.2,435.8,369,434.3c0-39.2,0-78.4,0-117.5
			C369,356,369,395.2,369,434.3z M310.1,164c0.7,0,1.4,0.1,2.1,0.1C311.5,164.1,310.8,164,310.1,164L310.1,164z M404.6,506.6
			c-1.6,1.7-3.3,2.4-5.6,2.3c-21-0.1-42-0.1-63-0.1c-0.9-5.4-1.8-10.8-2.8-16.2c-2.5-14.1-5.9-27.9-10.1-41.5
			c-0.1-0.2-0.1-0.5-0.1-1c3.3-2.7,3.8-6.7,3.8-10.8c0.1-5.1-1.4-9.7-4.5-13.6c-1.5-1.9-1.9-3.6-1.7-6.1c0.8-7.1-0.8-13.7-4.9-19.6
			c-0.7-1-1.3-1.9-2.1-3c3.6-3.9,6.3-8,2.6-13.2c2.5-6.1,1.7-9.1-3.5-12.4c0.1-3.2-0.6-6.2-3.7-8.5c0.9-0.4,1.5-0.7,2.1-0.9
			c12.6-2.4,23.5-8.2,33.1-16.6c10.5-9.1,17.9-20.3,23.3-32.9l0.3-0.1l0.3,0c0,39.1,0,78.3,0,117.4c0,2.5,0,5,0,7.5
			c0,2.9,1,5.3,3.6,6.8c0.3,0.2,0.6,0.4,0.9,0.7c1.6,1.5,3.6,1.4,5.7,1.4c12.9,0,25.7,0,38.6,0.1c0,15.2,0,30.3,0.1,45.5
			c0,1.6-0.5,2.7-1.6,3.7C411.8,499.3,408.2,502.9,404.6,506.6z M417.6,498.3c0,0.2-0.1,0.3-0.1,0.5
			C417.5,498.7,417.6,498.5,417.6,498.3z M417.4,498.9c-0.1,0.4-0.3,0.7-0.5,1C417.2,499.6,417.3,499.3,417.4,498.9z M415.4,502.1
			c-0.5,0.4-1,0.8-1.4,1c0.3-0.4,0.6-0.8,1-1.1C415.1,502.1,415.2,502.1,415.4,502.1c1.3-1.5,2.1-2.4,2.7-2.9
			c0.6,0.4,1.2,0.8,1.8,1.3C419.1,499.9,418.4,499.3,415.4,502.1z M424.9,491L424.9,491c0.1-0.2,0.1-0.4,0.2-0.6
			C425,490.5,424.9,490.7,424.9,491z M504.3,661.4L504.3,661.4c0,0.4,0,0.8,0.1,1.2C504.4,662.2,504.3,661.8,504.3,661.4z
			 M505.1,660.1C505.1,660.1,505.1,660.1,505.1,660.1C505.1,660.1,505.1,660.1,505.1,660.1c0.4,0,0.9-0.1,1.4-0.1
			C506,660,505.6,660.1,505.1,660.1z M508.4,657.1c-0.1,0-0.2,0-0.2,0c-0.1,0-0.1,0.1-0.2,0.2v0c0-0.1,0.1-0.1,0.2-0.2
			C508.2,657.1,508.3,657.1,508.4,657.1c0.2,0.1,0.4,0.1,0.6,0.1C508.8,657.2,508.6,657.2,508.4,657.1z M513.1,652.2
			c-1,0.9-2,1.9-3,2.8l0,0l0,0c0,0,0,0,0,0C511.1,654.1,512.1,653.2,513.1,652.2c0.3-0.3,0.5-0.6,0.8-1
			C513.6,651.6,513.4,651.9,513.1,652.2z M602.1,304c-0.6,0-1.2,0-1.8,0C600.9,303.9,601.5,304,602.1,304
			C602.1,304,602.1,304,602.1,304z M602.7,562.6C602.7,562.6,602.7,562.6,602.7,562.6c0.3-0.3,0.5-0.6,0.7-0.9
			C603.1,562,602.9,562.3,602.7,562.6z"/>
		<path class="st1" d="M217.3,7.2C217.3,7.2,217.3,7.2,217.3,7.2c49.6,0,99.2,0.1,148.8,0.1c44.4,0,88.8,0,133.2,0c0,0,0,0,0,0
			c3.7,0,6.6,1.2,9.2,3.8c11.2,11.3,22.5,22.5,33.7,33.7c7.9,7.9,15.6,16,23.5,23.9c9.2,9.3,18.5,18.5,27.7,27.8
			c0.5,0.5,0.9,1.1,1.4,1.6c0.2,0.3,0.5,0.5,0.7,0.8c0,0,0,0,0,0c0.7,0.7,1.4,1.4,2.2,2.2v0c0,0,0,0,0,0c1,1,1.9,1.9,2.9,2.9
			c0,0,0,0,0,0c0.5,0.5,1,1,1.4,1.5c0,0,0,0,0,0c1,1,2,1.9,2.9,2.9c2.1,2.1,4.3,4.1,6.4,6.2c1.4,1.4,2,3.2,2.1,5.2
			c0,0.7,0,1.4,0,2.1c0,47,0,94,0,141.1c0,1.5,0,3.2-0.4,4.6c-1.2,3.9-4.3,5.8-8.2,6.3c-0.3,0-0.7,0.1-1,0.1c-0.5,0-1,0-1.5,0
			c0,0,0,0,0,0c-18.2,0-36.3,0-54.5,0c-39.7,0-79.4,0-119.1,0c-1.5,0-2.9-0.4-4.4-0.6c0,0,0,0,0,0c-2.2,0-3.7-1.3-5-2.9
			c-0.3-0.5-0.6-0.9-0.8-1.4c-0.1-0.2-0.1-0.3-0.2-0.5c0.1-0.3,0.2-0.7,0.3-1v0c-0.1,0.3-0.2,0.7-0.3,1c-1.6-1.5-1.3-3.4-1-5.3
			c0-25.3-0.1-50.6-0.1-76c0.2,0,0.5,0,0.7,0c0-0.1,0-0.3,0-0.4c0-0.1,0-0.2,0-0.3c0,0.1,0,0.2,0,0.3c0,0.1,0,0.3,0,0.4
			c-0.2,0-0.5,0-0.7,0c-3.6-3.7-7.3-7.5-11-11.1c-1.6-1.6-3.3-3-5-4.5c-1.1,0-2.3,0.1-3.4,0.1c-0.7,0-1.5,0-2.2,0
			c-24.9,0-49.8,0-74.7,0c-1.5,0-3.1,0-4.6,0c-0.9,0.5-1.9,1-2.8,1.4l-0.1,0.1c-0.1,0-0.3-0.1-0.4-0.1c0.1,0,0.3,0.1,0.4,0.1
			c-0.5,0.9-1.1,1.8-1.6,2.7c11.7,4.8,22.2,11.2,31.7,19.6c15.5,13.7,25.4,30.6,29.9,50.8c1.8,8,2.6,16,2.6,24.1
			c0,8.2-0.8,16.4-2.6,24.5c0,0.8,0.2,1.1,0.7,1.1c0.3,0,0.6-0.1,0.9-0.2c1.4-0.1,2.8-0.3,4.3-0.3c38.2,0,76.4,0,114.7,0
			c36,0,71.9,0,107.9,0c1.5,0,3.1,0.1,4.6,0.2c5.1,1.4,7.2,4.1,7.2,9.5c0,66.9,0,133.8,0,200.6c0,18-0.1,36.1,0,54.1
			c0,3.6-1.1,6.4-3.6,8.9c-22.2,22.2-44.4,44.4-66.6,66.6c-11,11-22,22-32.9,32.9c-0.8,0.8-1.5,1.5-2.3,2.3
			c-2.3,2.3-5.1,3.3-8.4,3.3c0,0,0,0,0,0c-47.3,0-94.6,0-141.9,0c-19.7,0-39.5,0-59.2,0c-27.1,0-54.1,0-81.2,0c0,0,0,0,0,0
			c-3.9,0-7-1.3-9.8-4.1c-24.7-24.8-49.4-49.5-74.2-74.3c-7.9-7.8-15.7-15.7-23.6-23.5c-0.8-0.8-1.5-1.8-2.3-2.7
			c-2.7-1.4-5.4-3.2-8.2-4.1c-16.2-5.4-28.4-26.1-30.6-39.2c-2.1-12.6-0.6-24.7,3.3-36.6c5.2-15.9,13.5-30.1,23.3-43.6
			c2-2.7,4.1-5.2,6-8c0.9-1.3,1.5-2.9,1.9-4.5c0.4-1.7-0.3-3-1.8-4.3c-1.8-1.5-3.6-3.3-4.5-5.4c-1-2.3-2.5-3.8-4.4-5.2
			c-4.4-3.3-7.4-7.7-8.8-13.1c-0.3-1-0.6-2-0.9-3.1c-4-0.1-7.9-0.3-11.8-0.4c-8.1-0.2-16.2-1.2-24.1-3.2
			c-14-3.5-23.9-12.2-31.2-24.3c-5.1-8.4-7.1-17.6-7.8-27.2c-0.3-4.2-0.7-8.3-0.7-12.5c0-5.3,1-10.4,3.5-15.2
			c2.9-5.4,7.1-8.9,13.6-8.9c0,0,0.1,0,0.1,0c3.7,0,6,1.7,7.1,5.2c1,3.4,1.8,6.9,2.8,10.3c0.6,2.1,1.2,4.1,1.9,6.1
			c1.8,6,6,9.9,11.2,12.9c1,0.6,2.2,1.1,3.3,1.3c2.7,0.3,5.4,0.5,8.1,0.5c4.9,0,9.8-0.6,14.5-2.2c10.3-3.4,17.9-10.1,24.1-18.8
			c1.7-2.3,3.1-4.8,4.5-7.3c0.6-1.1,0.9-2.4,1.3-3.6c-0.2-0.6-0.5-1.3-0.5-1.9c0-16.4,0-32.8,0-49.2c0-0.6,0.4-1.2,0.6-1.9
			c0.2,0.6,0.4,1.2,0.6,1.8c0,0.1,0.1,0.2,0.1,0.3c0-0.1-0.1-0.2-0.1-0.3c-0.2-0.6-0.4-1.2-0.6-1.8c-0.6-5.8-1.2-11.6-1.7-17.4
			c-0.7-8.1-1.1-16.1,0.2-24.2c0.4-2.4,1-4.8,1.6-7.2c-1.4-0.8-0.6-2.2-0.6-3.2c-0.1-22.7,0-45.4,0-68.1c0-6,0-11.9,0-17.9
			c0-4.5,1.3-8.2,4.7-11.4c8-7.7,15.6-15.8,23.4-23.6c4.9-4.9,9.9-9.6,14.8-14.5c11.3-11.4,22.6-23,33.9-34.4
			c9.3-9.4,18.8-18.7,28-28.2C210.1,8.5,213.2,7.2,217.3,7.2 M597.6,101c-0.1,0-0.2,0-0.4,0C597.4,101,597.5,101,597.6,101
			 M312.2,164.1c-0.7,0-1.4-0.1-2.1-0.1C310.8,164,311.5,164.1,312.2,164.1 M602.1,304C602.1,304,602.1,304,602.1,304
			c-0.6,0-1.2,0-1.8,0C600.9,303.9,601.5,304,602.1,304 M341.5,508.9c5.9,0,11.8,0,17.7,0c13.3,0,26.6,0,39.9,0.1c0,0,0,0,0.1,0
			c2.3,0,4-0.7,5.6-2.3c3.5-3.7,7.2-7.3,10.9-10.9c1.1-1.1,1.6-2.2,1.6-3.7c-0.1-15.2-0.1-30.3-0.1-45.5c-12.9,0-25.7,0-38.6-0.1
			c-2,0-4,0-5.7-1.4c-0.3-0.2-0.6-0.4-0.9-0.7c-2.6-1.5-3.7-3.9-3.6-6.8c0-2.5,0-5,0-7.5c0-39.1,0-78.3,0-117.4l-0.3,0l-0.3,0.1
			c-5.4,12.6-12.8,23.8-23.3,32.9c-9.6,8.4-20.5,14.2-33.1,16.6c-0.6,0.1-1.2,0.5-2.1,0.9c3.1,2.3,3.8,5.4,3.7,8.5
			c5.2,3.2,6,6.3,3.5,12.4c3.7,5.2,1,9.3-2.6,13.2c0.7,1.1,1.4,2,2.1,3c4.2,5.9,5.7,12.6,4.9,19.6c-0.3,2.5,0.2,4.2,1.7,6.1
			c3.1,3.9,4.6,8.5,4.5,13.6c-0.1,4.2-0.6,8.1-3.8,10.8c0.1,0.5,0.1,0.8,0.1,1c4.2,13.6,7.6,27.5,10.1,41.5c1,5.4,1.9,10.8,2.8,16.2
			C337.8,508.9,339.7,508.9,341.5,508.9 M369.7,438.6c-0.2-1.4-0.5-2.9-0.7-4.3c0-39.2,0-78.4,0-117.5c0,39.2,0,78.4,0,117.5
			C369.2,435.8,369.5,437.2,369.7,438.6 M424.9,491c0.1-0.2,0.1-0.4,0.2-0.6C425,490.5,424.9,490.7,424.9,491L424.9,491
			 M417.6,498.5c0,0.1-0.1,0.2-0.1,0.3C417.5,498.7,417.5,498.6,417.6,498.5c0-0.1,0-0.1,0-0.2C417.6,498.4,417.6,498.5,417.6,498.5
			 M416.9,499.9c0.2-0.3,0.4-0.6,0.5-1C417.3,499.3,417.2,499.6,416.9,499.9 M415.4,502.1c-0.2,0-0.4,0-0.4-0.1
			c-0.4,0.4-0.7,0.7-1,1.1C414.4,502.8,414.9,502.5,415.4,502.1c1.8-1.6,2.8-2.1,3.4-2.1c0.5,0,0.8,0.2,1.1,0.5
			c-0.7-0.5-1.2-0.9-1.8-1.3C417.6,499.7,416.7,500.6,415.4,502.1 M602.7,562.6C602.7,562.6,602.7,562.6,602.7,562.6
			c0.3-0.3,0.5-0.6,0.7-0.9C603.1,562,602.9,562.3,602.7,562.6 M510.2,655.1L510.2,655.1c1-0.9,2-1.9,3-2.8c0.3-0.3,0.5-0.6,0.8-1
			c-0.3,0.3-0.5,0.7-0.8,1C512.1,653.2,511.1,654.1,510.2,655.1L510.2,655.1 M508,657.3c0-0.1,0.1-0.1,0.2-0.2c0.1,0,0.1,0,0.2,0
			c0,0,0,0,0,0c0.2,0,0.4,0.1,0.5,0.1c0,0,0.1,0,0.1,0c0,0-0.1,0-0.1,0c-0.2,0-0.3,0-0.5-0.1c0,0,0,0,0,0c-0.1,0-0.1,0-0.2,0
			C508.1,657.2,508.1,657.3,508,657.3 M505.1,660.1L505.1,660.1c0.4,0,0.9-0.1,1.4-0.1C506,660,505.6,660.1,505.1,660.1
			C505.1,660.1,505.1,660.1,505.1,660.1 M504.4,662.5c0,0.1,0,0.1,0,0.2C504.4,662.6,504.4,662.5,504.4,662.5c0-0.4,0-0.7-0.1-1.1h0
			C504.3,661.8,504.3,662.1,504.4,662.5 M217.4,0L217.4,0L217.4,0L217.4,0c-6,0-11,2.1-15.2,6.4c-5.6,5.7-11.3,11.5-16.9,17
			c-3.6,3.6-7.4,7.4-11.1,11.2c-5.2,5.3-10.6,10.7-15.7,15.9c-6,6.1-12.1,12.3-18.2,18.5c-2.4,2.5-5,4.9-7.4,7.3
			c-2.4,2.3-4.9,4.7-7.3,7.2c-2.9,2.9-5.7,5.8-8.5,8.6c-4.8,4.9-9.8,10-14.8,14.8c-4.7,4.5-6.9,9.9-6.9,16.7c0,4.1,0,8.2,0,12.2
			c0,1.9,0,3.8,0,5.7l0,10.4c0,18.8,0,38.3,0,57.4c-0.3,1.8-0.2,3.4,0.2,4.7c-0.4,1.6-0.7,3.2-1,4.9c-1.5,9-1,17.8-0.3,26
			c0.4,4.1,0.8,8.2,1.2,12.1c0.1,1.2,0.3,2.5,0.4,3.7c-0.2,0.7-0.4,1.7-0.4,2.8c0,16,0,32.6,0,49.3c0,0.7,0.1,1.3,0.2,1.8
			c0,0.1-0.1,0.2-0.1,0.2c-1.2,2.2-2.6,4.5-4.1,6.6c-5.8,8.2-12.6,13.5-20.5,16.2c-3.8,1.3-7.8,1.9-12.3,1.9c-2.2,0-4.5-0.1-7-0.4
			c-0.1,0-0.3-0.1-0.8-0.4c-4.4-2.5-6.8-5.2-7.9-8.8c-0.2-0.7-0.4-1.4-0.6-2.1c-0.4-1.3-0.8-2.6-1.2-3.9c-0.4-1.3-0.7-2.6-1-3.9
			c-0.5-2.1-1.1-4.4-1.8-6.6c-2-6.6-7.1-10.3-13.9-10.3l-0.1,0c-6,0-14.3,2.3-19.8,12.7C1.5,321.2,0,327.5,0,334.3
			c0,3.5,0.3,7,0.5,10.3c0.1,0.9,0.1,1.7,0.2,2.6c0.8,12.2,3.6,21.8,8.8,30.4c8.9,14.8,20.6,23.8,35.6,27.6c8.1,2,16.7,3.2,25.6,3.4
			c2.2,0.1,4.3,0.1,6.6,0.2c2,6,5.6,11.1,10.8,15c1.4,1,1.8,1.6,2.1,2.4c1.3,2.9,3.4,5.2,5.3,6.9c-0.1,0.2-0.2,0.3-0.2,0.3
			c-1,1.4-2.1,2.8-3.2,4.4c-0.9,1.1-1.8,2.2-2.6,3.4c-11.7,16.1-19.4,30.5-24.4,45.6c-4.6,14-5.7,27.1-3.6,40
			c1.3,7.9,5.5,17.5,11.3,25.5c4.8,6.8,12.9,15.6,24.1,19.4c1.3,0.4,2.8,1.3,4.4,2.2c0.5,0.3,1,0.5,1.4,0.8c0.5,0.6,1.1,1.4,1.8,2.1
			c4.3,4.3,8.6,8.5,12.8,12.8c3.6,3.6,7.2,7.1,10.7,10.7l13.4,13.4c19.9,19.9,40.6,40.5,60.8,60.9c4.2,4.2,9,6.2,14.9,6.2
			c29.7,0,59,0,81.2,0c11.7,0,23.3,0,35,0l24.2,0l19.2,0c40.2,0,81.8,0,122.6,0c5.3,0,9.8-1.8,13.4-5.3c0.8-0.8,1.6-1.5,2.3-2.3
			l4.7-4.7c9.4-9.4,18.8-18.8,28.2-28.2c5.4-5.4,10.8-10.8,16.1-16.2c16.5-16.5,33.6-33.7,50.5-50.4c3.9-3.9,5.8-8.5,5.7-14
			c-0.1-13.3-0.1-26.7-0.1-39.8c0-4.8,0-9.5,0-14.3l0-32.5c0-56,0-112.1,0-168.1c0-8.6-4.2-14.1-12.4-16.4l-0.8-0.2l-0.8,0
			c-0.5,0-0.9-0.1-1.4-0.1c-1.1-0.1-2.3-0.1-3.6-0.1c-36,0-71.9,0-107.9,0c-37.3,0-74.7,0-112,0c0.8-5.8,1.3-11.8,1.3-17.9
			c0-8.8-0.9-17.4-2.7-25.7c-4.8-21.6-15.6-40-32.1-54.6c-4.7-4.1-9.7-7.9-15-11.2c16.4,0,32.7,0,49.1,0l13.3,0l1.1,0l1.1,0l0.1,0
			l0.1,0l0.6,0c0.9,0.8,1.8,1.6,2.6,2.4c2.6,2.6,5.2,5.3,7.7,7.8c0.4,0.4,0.7,0.8,1.1,1.1l0.1,35.1l0.1,37.5c-0.3,2.1-0.6,6,2,9.5
			l0.1,0.1l0.2,0.4l0.3,0.5l0.6,0.9l0.2,0.3l0.2,0.3c1.6,2,3.3,3.5,5.3,4.5l3.2,3.1l0.5-2c0.3,0,0.6,0.1,0.9,0.1
			c0.3,0,0.5,0.1,0.8,0.1c1.2,0.2,2.7,0.5,4.3,0.5c41.7,0,83.6,0,119.1,0l36.3,0l18.2,0c0.2,0,0.4,0,0.6,0c0.3,0,0.6,0,1,0
			c0.7,0,1.3,0,1.9-0.1c7.1-0.9,12.2-4.9,14.2-11.3c0.8-2.4,0.8-4.6,0.8-6.4l0-0.3c0-41.4,0-83.4,0-124l0-17l0-0.5
			c0-0.6,0-1.2,0-1.9c-0.1-2.8-0.9-5.1-1.8-6.8h0.4l-1-1c-0.6-0.9-1.2-1.6-1.7-2.1c-1.5-1.5-3.1-3-4.6-4.5c-0.6-0.6-1.3-1.2-1.9-1.8
			l-1-0.9l-1.9-1.8l-1.4-1.4l-5.6-5.7c0,0-0.1-0.1-0.1-0.1c-0.4-0.5-0.8-1-1.4-1.6c-3.4-3.4-6.7-6.8-10.1-10.1
			c-5.8-5.8-11.7-11.8-17.6-17.7c-3.7-3.7-7.4-7.5-11-11.2c-4.1-4.2-8.3-8.5-12.5-12.7c-4.9-4.9-9.8-9.8-14.6-14.6
			C526.4,18.8,520,12.4,513.6,6C509.7,2,505,0,499.4,0c-49.2,0-92.8,0-133.2,0C312.7,0.1,264,0,217.4,0L217.4,0z M319.7,367.4
			c10.5-3.1,20.3-8.6,29.3-16.5c4.4-3.8,8.4-8.1,12-12.7l0,91.8c0,1,0,2,0,3c0,1.5,0,3,0,4.5c0,5.5,2.4,10,6.8,12.8l0.4,0.3
			c3.6,3,7.6,3,10,3l0.1,0c9.6,0,19.3,0,28.9,0l2.6,0l0,3c0,11.3,0,23,0.1,34.5c-3.3,3.2-7,6.8-10.5,10.6c0,0-0.1,0.1-0.1,0.1
			c-0.1,0-0.1,0-0.3,0c-13.5-0.1-27.2-0.1-39.9-0.1l-8.8,0l-8.3,0c-0.6-3.4-1.2-6.9-1.8-10.3c-2.3-13.1-5.5-26.4-9.4-39.4
			c3-4.6,3.1-9.7,3.1-12.5c0.1-6.8-1.9-12.9-6-18.2c-0.1-0.1-0.2-0.2-0.2-0.3c0-0.1,0-0.3,0-0.6c0.9-8.5-0.9-16.3-5.2-23.1
			c0.8-1.3,1.5-2.7,2-4.3c0.8-2.5,1.1-5.9-0.5-9.8c1.3-4.8,1.3-10.5-4.4-15.5C319.7,367.6,319.7,367.5,319.7,367.4L319.7,367.4z
			 M96.8,434.3C96.8,434.3,96.8,434.3,96.8,434.3L96.8,434.3z M509,659l0-1.1l1.3,0.8L509,659L509,659z"/>
	</g>
	<g>
		<path class="st2" d="M107.3,569.1c-2.7-1.4-5.4-3.2-8.2-4.1c-16.2-5.4-28.4-26.1-30.6-39.2c-2.1-12.6-0.6-24.7,3.3-36.6
			c5.2-15.9,13.5-30.1,23.3-43.6c2-2.7,4.1-5.2,6-8c0.9-1.3,1.5-2.9,1.9-4.5c0.4-1.7-0.3-3-1.8-4.3c-1.8-1.5-3.6-3.3-4.5-5.4
			c-1-2.3-2.5-3.8-4.4-5.2c-4.4-3.3-7.4-7.7-8.8-13.1c-0.3-1-0.6-2-0.9-3.1c-4-0.1-7.9-0.3-11.8-0.4c-8.1-0.2-16.2-1.2-24.1-3.2
			c-14-3.5-23.9-12.2-31.2-24.3c-5.1-8.4-7.1-17.6-7.8-27.2c-0.3-4.2-0.7-8.3-0.7-12.5c0-5.3,1-10.4,3.5-15.2
			c2.9-5.4,7.1-8.9,13.6-8.9c3.7,0,6.1,1.6,7.2,5.2c1,3.4,1.8,6.9,2.8,10.3c0.6,2.1,1.2,4.1,1.9,6.1c1.8,6,6,9.9,11.2,12.9
			c1,0.6,2.2,1.1,3.3,1.3c7.6,0.9,15.2,0.7,22.6-1.7c10.3-3.4,17.9-10.1,24.1-18.8c1.7-2.3,3.1-4.8,4.5-7.3c0.6-1.1,0.9-2.4,1.3-3.6
			c3.7-4.8,5.2-10.5,6.5-16.2c1-4.2,1-8.5,0-12.7c-1.3-5.3-2.5-10.6-3.8-15.8c-0.7-2.8-1.7-5.5-2.6-8.3c-0.6-5.8-1.2-11.6-1.7-17.4
			c-0.7-8.1-1.1-16.1,0.2-24.2c0.4-2.4,1-4.8,1.6-7.2c2.8-3.6,5.7-7.1,8.5-10.7c4.8-2.7,9.6-5.4,14.6-8.1c0-1,0-2.2,0-3.4
			c0-20.4,0-40.8,0-61.3c0-2.1,0.6-3.6,2.1-5c13.9-13.9,27.8-27.9,41.6-41.9c16.2-16.3,32.6-32.6,48.7-49c2-2,3.9-2.7,6.5-2.7
			c88.3,0.1,176.5,0.1,264.8,0c3.5,0,5.9,1,8.3,3.5c21.8,22.1,43.7,44,65.6,66c8,8,16,16.1,24.1,24c1.3,1.3,1.8,2.6,1.8,4.4
			c0,39.4,0,78.8-0.1,118.2c0,0.9,0,1.9,0,2.9c-49.9,0-99.5,0-149.2,0c0-5,0-9.8,0-14.5c0-18.3,0-36.5,0-54.8c0-1.7,0-3.1-1.4-4.5
			c-8.4-8.5-16.7-17-25-25.7c-1.5-1.6-3-2.3-5.2-2.3c-10.5,0.1-21,0-31.5,0c-23.3,0-46.6,0-69.9,0c-1.6,0-2.9,0.3-4.1,1.6
			c-5.7,5.8-11.5,11.5-17.2,17.3c-0.5,0.5-0.9,1.2-1.4,1.9c2.8,0.6,5.2,1.1,7.6,1.6c3,0.6,6.1,1.1,9.1,1.7c2.3,0.7,4.6,1.5,6.9,2.2
			c1,0.5,2,0.9,3,1.4c11.7,4.8,22.2,11.2,31.7,19.6c15.5,13.7,25.4,30.6,29.9,50.8c1.8,8,2.6,16,2.6,24.1c0,8.2-0.8,16.4-2.6,24.5
			c-0.3,1.4-0.6,2.8-1,4.2c-0.8,2.9-1.6,5.8-2.5,8.6c-0.2,0.2-0.3,0.4-0.5,0.7c-0.1,0.7-0.2,1.3-0.3,2c-0.2,0.3-0.4,0.6-0.5,0.9
			c-0.1,0.2-0.2,0.4-0.2,0.6c-0.2,0.3-0.4,0.6-0.6,1c-5.4,12.6-12.8,23.8-23.3,32.9c-9.6,8.4-20.5,14.2-33.1,16.6
			c-0.6,0.1-1.2,0.5-2.1,0.9c3.1,2.3,3.8,5.4,3.7,8.5c5.2,3.2,6,6.3,3.5,12.4c3.7,5.2,1,9.3-2.6,13.2c0.7,1.1,1.4,2,2.1,3
			c4.2,5.9,5.7,12.6,4.9,19.6c-0.3,2.5,0.2,4.2,1.7,6.1c3.1,3.9,4.6,8.5,4.5,13.6c-0.1,4.2-0.6,8.1-3.8,10.8c0.1,0.5,0.1,0.8,0.1,1
			c4.2,13.6,7.6,27.5,10.1,41.5c1,5.4,1.9,10.8,2.8,16.2c0.3,3.1,0.6,6.3,0.9,9.4c0.3,4.7,0.7,9.4,1,14.1c0.7,0.1,1,0.2,1.4,0.2
			c23.5,0,47.1,0,70.6,0c1.6,0,2.6-0.6,3.7-1.7c8.2-8.3,16.5-16.6,24.8-24.8c1.6-1.6,2.2-3.1,2.2-5.3c-0.1-25,0-49.9,0-74.9
			c0-1-0.1-2.1-0.2-3.4c-16.3,0-32.4,0-48.5,0c0-34.7,0-69.2,0-103.6c8.3-0.7,195.2-0.4,197.8,0.3c0,0.6,0,1.2,0,1.8
			c0,77,0,154.1,0,231.1c0,2.1-0.7,3.5-2.1,5c-30.2,30.1-60.3,60.2-90.4,90.4c-1.8,1.8-3.5,2.4-5.9,2.4c-89-0.1-178-0.1-266.9,0
			c-2.2,0-3.8-0.6-5.3-2.2c-23.7-23.8-47.4-47.5-71.1-71.2c-1.1-1.1-1.9-2.3-2.3-3.9c-3.5-14.4-6.4-28.8-8.2-43.5
			c-1-8.3-1.6-16.6-2.3-24.9c-1.2-15-0.4-29.8,3.6-44.3c0.2-0.6,0.1-1.3,0.1-2c-10.4,13.2-16.4,28.5-21.8,44.1
			c-0.1-1.2,0.1-2.4,0.2-3.5c0.1-12.5,2.5-24.6,5.2-36.7c1.4-6.2,3.3-12.2,6.5-17.7c2.8-4.8,8.2-7.2,13.7-6.3
			c9.9,1.6,17.8,6.2,23.3,14.9c4.2,6.8,7.8,13.9,9.2,21.9c0.4,2.4,0.8,4.9-0.6,7.3c-0.3-0.2-0.6-0.3-0.7-0.5
			c-3.7-6.4-7.3-12.8-11.1-19.1c-1-1.6-2.3-2.9-3.5-4.4c-0.2-0.1-0.5-0.3-0.7-0.4c0.1,0.3,0.2,0.6,0.3,0.8c0.3,0.8,0.6,1.6,1,2.3
			c4.6,8.5,5.4,17.8,4,27.1c-2,13-4.8,26-7.2,39c-1.4,7.6-2.4,15.3-2.4,23.1c0,8.5,2.6,15.6,9,21.7c20.6,20.1,40.9,40.5,61.2,60.9
			c1.7,1.7,3.3,2.3,5.6,2.3c20.3-0.1,40.6,0,60.9,0c64.3,0,128.5,0,192.8,0.1c3.2,0,5.3-1,7.4-3.2c5-5.3,10.2-10.4,15.4-15.5
			c21.7-21.7,43.4-43.4,65.2-65.1c1.8-1.8,2.6-3.7,2.6-6.3c-0.1-69.5-0.1-139-0.1-208.6c0-0.9-0.1-1.8-0.1-2.8
			c-56.2,0-112.2,0-168.2,0c0,24.7,0,49.3,0,74.2c16.3,0,32.5,0,49,0c0,1.4,0,2.4,0,3.5c0,31.9,0,63.8,0.1,95.7
			c0,2.3-0.8,3.8-2.3,5.3c-11,10.9-22,21.9-32.9,32.9c-1.6,1.6-3.1,2.2-5.3,2.2c-26.8-0.1-53.5,0-80.3,0c-1.2,0-2.3,0-3.3,0
			c-0.2-0.6-0.4-0.8-0.4-1c0.5-11.6-0.5-23.1-2-34.6c-1.6-11.8-3.7-23.5-6.3-35.1c-2.5-11.2-5.1-22.4-9.5-33.1
			c2.1-2,4.1-0.4,6.3,0.1c0.2-1.6,0.7-3.2,0.6-4.6c-0.4-4.3-2.2-8.1-5.6-10.8c-1.8-1.4-2.3-2.7-1.5-4.9c1.3-3.4,1-7,0.4-10.6
			c-0.9-4.9-3.4-8.8-7-12.1c-1.6-1.5-3.4-2.9-3.6-5.4c2.9-1.5,6.2-2.2,7.8-5.6c-3.6-1.4-7.6,0.4-10.8-2.2c3.7-2.6,8-4.1,10.6-7.9
			c-2.9-0.9-5.5-1.3-7.8-2.5c-2.3-1.1-5.5-1-6.6-4.2c2.9-1.1,6.5,0.1,9-2.7c-9.9-4.2-14.2-8.9-13.5-14.6c4.2,0,8.3,0.1,12.5,0
			c2.6-0.1,5.3-0.2,7.8-0.8c15.4-3.4,27.7-11.9,37.4-24.1c10.5-13.2,16.3-28.3,18.7-44.9c2-14,1.3-27.8-2.3-41.5
			c-2.3-8.6-5.3-16.9-10.3-24.2c-14.6-21.2-34.3-35.1-59.5-40.9c-8.4-1.9-16.8-3.6-25.4-3.6c-16.9,0-33,3.6-48.6,10.2
			c-17.5,7.4-32.3,18.1-43.1,34.1c-1.7,2.5-3.5,4.8-5.3,7.2c-2.7-2.5-3.7-5.5-4.8-8.5c-1-3-1.8-6.2-3-9.1c-1.9-4.8-5.3-8-10.4-8.9
			c-13.2-2.4-25.4,0-36.3,7.7c-5.9,4.1-8.8,10.1-9.3,17.4c-0.8,12,0.5,23.8,2.7,35.6c1.3,7.2,3.3,14.4,5.1,21.5c1.5,6,2,11.9,0.6,18
			c-2.7,11.7-7.9,22.2-15,31.7c-5.4,7.3-12,13.2-20.2,17.2c-9,4.5-18.6,5.5-28.5,5c-10.4-0.6-17.7-6.2-22.4-15
			c-2.5-4.7-3.6-10.3-5.2-15.5c-0.6-1.9-1.1-3.8-1.6-5.8c-3.8,0.5-5.6,3-7,5.8c-1.5,3.2-2.3,6.5-2.1,10c0.1,4.4,0.5,8.8,0.7,13.2
			c0.4,10.2,3.5,19.4,9.6,27.6c3.7,5,7.9,9.6,13.6,12.5c6,3.1,12.4,4.8,19.1,5.7c10.1,1.3,20.2,1.8,30.3,1.1c0.7,0,1.3,0.2,2,0.3
			c0.7,12.7,2.7,16,12.8,21.4c-0.5,5.3,2.8,7.9,7.3,9.6c1,0.4,2,0.6,3.1,0.9c2,0.6,4,1.1,6.3,1.7c-0.5,0.6-0.7,1-1,1.3
			c-3.8,4.6-7.8,9.1-11.4,13.8c-10.4,13.9-19.1,28.8-23.8,45.7c-2.9,10.5-4,21.1-1.2,31.8c2.7,10.2,8,18.7,16.3,25.3
			c0.2,0.2,0.4,0.4,0.6,0.6c0-0.3,0-0.7-0.1-1c-13.5-21.4-8.9-50.2,0.1-66.3c0.1,0.6,0.2,1.1,0.2,1.5c0,0.8,0,1.7,0,2.5
			c-0.8,12.9-0.3,25.7,2.1,38.5c2.9,15.1,7.8,29.4,16.1,42.4c2.6,4.1,5.6,8,8.4,11.9c-0.5,0-1,0.2-1.4,0c-3-1.2-6.1-2.5-9.1-3.6
			C112.8,570.9,110,570,107.3,569.1z M174,211.9c0.6-1.2,0.9-1.9,1.3-2.4c2.2-2.7,4.3-5.5,6.7-7.9c10.2-10.1,22-17.7,35.3-23.3
			c14.1-6,28.6-9.7,43.8-10.7c1.6-0.1,2.6-0.9,3.6-2c10.3-10.3,20.7-20.5,31-30.8c1.3-1.3,2.4-2.3,4.6-2.2
			c38.2,0.1,76.4,0.1,114.7,0c1.9,0,3.1,0.6,4.3,1.9c11,11.4,22,22.9,33.2,34.2c1.7,1.7,2.3,3.3,2.3,5.7c-0.1,18.8,0,37.5,0,56.3
			c0,1.3,0,2.5,0.1,3.7c7.4,0.7,116.5,0.4,119.2-0.2c0-0.3,0.1-0.7,0.1-1c0-33,0-65.9,0.1-98.9c0-1.9-0.8-3.1-2-4.3
			c-11.9-11.9-23.7-23.9-35.6-35.8c-15.7-15.7-31.4-31.5-47-47.2c-1.3-1.3-2.6-1.8-4.4-1.8c-85.3,0-170.6,0-255.8,0
			c-2,0-3.3,0.7-4.6,2c-13.7,13.9-27.4,27.7-41.1,41.5c-13.8,13.9-27.6,27.8-41.5,41.6c-1.4,1.4-1.9,2.7-1.9,4.7
			c0.1,17.9,0,35.8,0,53.7c0,0.9,0.2,1.8,0.2,2.3c4.9,0.4,9.6,0.4,14.1,1.1c8.1,1.3,13.9,5.8,17.1,13.5
			C172.3,207.3,172.9,209.1,174,211.9z M139.2,457.2c0.1-0.1,0.2-0.2,0.2-0.2c-0.2-0.1-0.3-0.2-0.5-0.2c-0.1,0-0.2,0.1-0.2,0.2
			C139,457,139.1,457.1,139.2,457.2z"/>
		<path class="st3" d="M368.1,311.6c0-0.2,0.1-0.4,0.2-0.6c0.2-0.3,0.4-0.6,0.5-0.9c0.1-0.7,0.2-1.3,0.3-2c0.2-0.2,0.3-0.4,0.5-0.7
			c0.8-2.9,1.7-5.7,2.5-8.6c0.4-1.4,0.7-2.8,1-4.2c-0.1,1.4,0.7,1.1,1.6,0.9c1.1,0.2,2.3,0.5,3.4,0.5c51.2,0,102.3,0,153.5,0
			c23.7,0,47.5,0,71.2,0c1.1,0,2.2-0.4,3.3-0.5c5.1,1.4,7.2,4.1,7.2,9.5c0,66.9,0,133.8,0,200.6c0,18-0.1,36.1,0,54.1
			c0,3.6-1.1,6.4-3.6,8.9c-22.2,22.2-44.4,44.4-66.6,66.6c-11,11-22,22-32.9,32.9c-0.8,0.8-1.5,1.5-2.3,2.3
			c-2.3,2.3-5.1,3.3-8.4,3.3c-47.3,0-94.6,0-141.9,0c-46.8,0-93.6,0-140.4,0c-4,0-7-1.3-9.8-4.1c-24.7-24.8-49.4-49.5-74.2-74.3
			c-7.9-7.8-15.7-15.7-23.6-23.5c-0.8-0.8-1.5-1.8-2.3-2.7c2.7,0.9,5.5,1.8,8.2,2.8c3.1,1.1,6.1,2.4,9.1,3.6c0.4,0.2,0.9,0,1.4,0
			c0,0-0.1,0-0.1,0c0.2,0.3,0.5,0.5,0.7,0.8c3.7,3.5,7.4,7,11,10.6c25.2,25.2,50.5,50.4,75.7,75.6c0.8,0.8,1.9,1.4,2.8,2
			c0.2,0.4,0.3,1.1,0.5,1.1c1.6,0.1,3.2,0.1,4.7,0c0.2,0,0.3-0.7,0.5-1.1c0.5,0,1,0,1.4,0c0.3,0.4,0.5,1.2,0.9,1.3
			c1,0.2,2.1,0.1,3.2,0.1c89.7,0,179.4,0,269.1,0c2.2,0,4.4,0.3,6.2-1.6c0.3-0.3,1-0.2,1.6-0.3c-0.1-0.9-0.1-1.7-0.1-2.5l0,0
			c0.3-0.5,0.6-0.9,0.8-1.4c0,0,0,0,0,0c0.9-0.1,1.8-0.1,2.9-0.2c0-1,0-1.8,0-2.6c0.1-0.1,0.2-0.2,0.4-0.2c1.9,0.4,1.8-0.8,1.8-2
			l0,0c1,0.2,2.6-0.3,2.7-0.1c1.2,1.7,1.8-0.1,1.9-0.1c-0.4-0.7-1-1.6-1.7-2.6c0.5-0.6,1-1.3,1.6-1.9c7-7,14-14,21-21
			c21.1-20.9,42.1-41.8,63.2-62.6c1.3-1.3,2.5-2.7,3.8-4.1c0.8,0,1.6,0,2.5,0c-0.1-0.9-0.3-1.6-0.3-2.3c0.1-1.6,0.6-3.2,0.6-4.9
			c0-82.4,0-164.8,0-247.1c0-1,0.1-1.9-0.1-2.9c-0.1-0.4-0.8-0.6-1.3-0.9c-0.3-0.2-0.6-0.4-1-0.6c0.4-0.1,0.8-0.1,1.3-0.2
			c0-0.1,0-0.3-0.1-0.4c-75.3,0-150.5,0-225.8,0c0,0.2,0,0.4,0,0.5c1.1,0,2.3,0,3.4,0c72.1,0,144.3,0,216.4,0c1.2,0,2.4,0.1,3.6,0.1
			c-1.3,0.2-2.5,0.5-3.8,0.5c-71.7,0-143.5,0-215.2,0c-1.3,0-2.6,0.1-3.9,0c-1.3-0.1-1.6,0.8-2,1.6c-1.4-0.2-1.6,0.3-0.9,1.4
			c-1.1,0.1-2.3,0.1-3.6,0.2c0,1.6,0.3,3-0.1,4.2c-0.3,1.1-1.2,2-1.9,3c2.8,2,3.4,4.9,3.4,8.1c0,35.3,0,70.7,0,106c0,0.5,0,1,0,1.4
			c0.1,1.7-0.9,2.5-2.9,3.5c0-19.9,0-39.3,0-58.7c0-19.4,0-38.9,0-58.4c-1-0.1-1.6-0.1-2.1-0.1c-0.4-1.4,0.9-3.1-0.8-4.3l0,0
			C368.1,312.2,368.1,311.9,368.1,311.6z M376.7,301.3c-2-0.1-3.4,0.5-4.1,2.3c-0.2,0.5,0,1.1,0.1,1.8c1.2-0.4,2.2-0.7,3.1-1
			C376.1,303.3,376.4,302.4,376.7,301.3z M514.2,656.9l-0.2-0.1l0,0.2L514.2,656.9z"/>
		<path class="st4" d="M111.6,202.2c-2.8,3.6-5.7,7.1-8.5,10.7c-1.4-0.8-0.6-2.2-0.6-3.2c-0.1-22.7,0-45.4,0-68.1c0-6,0-11.9,0-17.9
			c0-4.5,1.3-8.2,4.7-11.4c8-7.7,15.6-15.8,23.4-23.6c4.9-4.9,9.9-9.6,14.8-14.5c11.3-11.4,22.6-23,33.9-34.4
			c9.3-9.4,18.8-18.7,28-28.2c2.8-2.9,5.9-4.3,10.1-4.3c94,0.1,188,0.1,282,0c3.7,0,6.6,1.2,9.2,3.8c11.2,11.3,22.5,22.5,33.7,33.7
			c7.9,7.9,15.6,16,23.5,23.9c9.2,9.3,18.5,18.5,27.7,27.8c0.5,0.5,0.9,1.1,1.4,1.6c0.2,0.3,0.5,0.6,0.7,0.8l0,0
			c0,2.1,0,2.1,2.2,2.2l0,0c0,0.9,0,1.7,0,2.9c1.1,0,2,0,2.9,0l0,0c-0.2,0.4-0.3,0.9-0.5,1.5c0.9,0,1.4,0,2,0l0,0
			c0.5,2.8,0.6,2.8,3,2.9c2.1,2.1,4.3,4.1,6.4,6.2c1.4,1.4,2,3.2,2.1,5.2c0,0.7,0,1.4,0,2.1c0,47,0,94,0,141.1c0,1.5,0,3.2-0.4,4.6
			c-1.2,3.9-4.3,5.8-8.2,6.3c-0.8,0.1-1.7,0-2.5,0c-57.9,0-115.8,0-173.6,0c-1.5,0-2.9-0.4-4.4-0.6c58.5,0,117.1,0,175.6,0
			c1.2,0,2.4,0,3.6-0.1c0.2,0,0.4-0.4,0.9-0.9c-1.1-0.3-2-0.6-2.9-0.9c0.2-0.9,0.4-1.5,0.6-2.7c-57.5,0-114.5,0-171.6,0
			c-0.1,0-0.2-0.1-0.3-0.2c0-0.1,0-0.2,0-1c19.1,0,38.2,0,57.4,0c19.2,0,38.5,0,57.7,0c19.2,0,38.4,0,57.6,0
			c1.3,1.6,2.2,3.8,4.7,2.5c0-1.3,0-2.4,0-3.9c-59.3,0-118.4,0-177.6,0c0-0.4,0-0.9,0-1.3c1.4,0,2.9-0.1,4.3-0.1
			c55.1,0,110.2,0,165.3,0c1.1,0,2.2,0.1,3.2,0c0.5-0.1,1-0.4,1.5-0.7c0.4-0.3,1.1-0.6,1.2-1c0.2-0.8,0.1-1.7,0.1-2.5
			c0-44.3,0-88.5,0-132.8c0-0.8,0.1-1.7-0.1-2.5c-0.1-0.4-0.8-0.7-1.2-1c0-0.5,0-0.9,0-1.4c0-0.2,0-0.5,0-0.7c0-0.5-0.1-1-0.1-1.5
			c0.1-0.2,0.3-0.3,0.4-0.5c-0.2,0-0.4-0.1-0.7-0.1c-0.7-0.6-1.4-1.2-2.1-1.9c-32.3-32.5-64.7-65-96.9-97.6
			c-2.8-2.8-5.5-3.8-9.3-3.8c-91,0.1-182,0.1-273,0.1c-1.9,0-3.8-0.1-5.7,0.1c-0.9,0.1-1.9,0.4-2.5,1c-2.9,2.6-5.8,5.2-8.6,7.9
			c-1.8,1.8-3.3,4-5.1,5.8c-9.7,9.9-19.4,19.8-29.1,29.6c-18.9,19-37.7,37.9-56.7,56.8c-2.2,2.2-3,4.4-3,7.5
			C111.7,150.8,111.6,176.5,111.6,202.2z"/>
		<path class="st5" d="M429.8,265.9c59.1,0,118.3,0,177.6,0c0,1.5,0,2.6,0,3.9c-2.6,1.3-3.5-0.8-4.7-2.5c-19.1,0-38.4,0-57.6,0
			c-19.2,0-38.5,0-57.7,0c-19.1,0-38.3,0-57.4,0c0,0.7,0,0.9,0,1c0,0.1,0.2,0.2,0.3,0.2c57.1,0,114.1,0,171.6,0
			c-0.3,1.2-0.4,1.8-0.6,2.7c0.9,0.3,1.8,0.5,2.9,0.9c-0.4,0.5-0.6,0.9-0.9,0.9c-1.2,0.1-2.4,0.1-3.6,0.1c-58.5,0-117.1,0-175.6,0
			c0,0,0,0,0,0c-0.2-1.2,0.1-3.1-0.6-3.6c-1.4-1.1-3.4-1.5-5.1-2.1c0-0.9,0-1.9-0.1-2.8c0.2-0.2,0.7-0.5,0.7-0.7
			c-0.2-1.7-0.6-3.5-0.6-5.2c0-22.5,0-45-0.1-67.5c0-1.4-0.5-2.7-0.7-4.1c0-0.2,0-0.5,0-0.7c1-0.5,1.1-1-0.1-1.4
			c-0.6-0.3-1.3-0.6-1.8-1.1c-1.4-1.6-2.4-3.5-4-4.8c-2.2-1.8-4.1-3.7-6-5.9c-0.9-1.1-2.6-2.7-4.8-1.8c-1.1,0-2.3,0.1-3.4,0.1
			c-0.3-0.5-0.5-1.4-0.9-1.5c-1.2-0.3-1.2,0.7-1.2,1.5c-24.9,0-49.8,0-74.7,0c-1.5,0-3.1,0-4.6,0c-1,0.3-3-1.3-2.8,1.4l-0.1,0.1
			c-1-0.3-1.9-0.2-2.8,0.6c-0.4,0.4-1.2,0.5-1.8,0.7c-2.3-0.7-4.6-1.5-6.9-2.2c0.7-0.7,1.4-1.4,2.1-2.1c0.7-0.2,1.5-0.3,2.1-0.7
			c0.8-0.6,1.4-1.8,2.2-2c1.8-0.5,2-1.7,2-3.1l0,0c1.4,0,2.9,0.1,4.3,0.1c30.9,0,61.7,0,92.6,0c1.8,2.6,4.2,4.3,6.6,6.3
			c4.1,3.5,7.6,7.8,11.4,11.7c0,25.4,0,50.8,0,76.3c0,0.6,0.2,1.3,0,1.8c-1,2.1-0.5,3.9,0.8,5.7c0.5,0.4,0.9,0.9,1.4,1.3
			c0.2-0.4,0.5-0.9,0.7-1.3c0.5,0,1,0,1.4,0c0.1,0.2,0.2,0.4,0.4,0.5C429.5,266.3,429.7,266.1,429.8,265.9L429.8,265.9z"/>
		<path class="st6" d="M103,261.6c0.9,2.8,1.8,5.5,2.6,8.3c1.4,5.3,2.6,10.5,3.8,15.8c1,4.2,1,8.5,0,12.7
			c-1.3,5.7-2.8,11.4-6.5,16.2c-0.2-0.6-0.5-1.3-0.5-1.9c0-16.4,0-32.8,0-49.2C102.4,262.9,102.8,262.2,103,261.6z"/>
		<path class="st7" d="M606.1,295.4c-1.1,0.2-2.2,0.5-3.3,0.5c-23.7,0-47.5,0-71.2,0c-51.2,0-102.3,0-153.5,0
			c-1.1,0-2.3-0.3-3.4-0.5c1.4-0.1,2.8-0.3,4.3-0.3c74.2,0,148.4,0,222.6,0C603,295.2,604.5,295.4,606.1,295.4z"/>
		<path class="st4" d="M417.6,187.1c0.2,1.4,0.7,2.7,0.7,4.1c0,22.5,0,45,0.1,67.5c0,1.7,0.4,3.5,0.6,5.2c0,0.2-0.4,0.5-0.7,0.7
			c-0.4-0.5-0.8-1-1.2-1.5c0-25.3-0.1-50.6-0.1-76C417.1,187.1,417.4,187.1,417.6,187.1z"/>
		<path class="st8" d="M417.6,187.1c-0.2,0-0.5,0-0.7,0c-3.6-3.7-7.3-7.5-11-11.1c-1.6-1.6-3.3-3-5-4.5c2.2-0.9,3.9,0.8,4.8,1.8
			c1.8,2.2,3.7,4.1,6,5.9c1.6,1.3,2.6,3.2,4,4.8c0.4,0.5,1.2,0.7,1.8,1.1c0,0.5,0.1,0.9,0.1,1.4
			C417.6,186.6,417.6,186.8,417.6,187.1z"/>
		<path class="st4" d="M418.3,267.3c1.7,0.7,3.7,1.1,5.1,2.1c0.7,0.5,0.4,2.4,0.6,3.6c-2.2,0-3.7-1.3-5-2.9
			c-0.3-0.5-0.6-0.9-0.8-1.4c-0.1-0.2-0.1-0.3-0.2-0.5C418.1,268,418.2,267.7,418.3,267.3z"/>
		<path class="st8" d="M308.5,174.2c0.6-0.2,1.4-0.3,1.8-0.7c0.9-0.8,1.7-0.9,2.8-0.6c-0.5,0.9-1.1,1.8-1.6,2.7
			C310.5,175.2,309.5,174.7,308.5,174.2z"/>
		<path class="st8" d="M418.3,267.3c-0.1,0.3-0.2,0.7-0.3,1c-1.6-1.5-1.3-3.4-1-5.3c0.4,0.5,0.8,1,1.2,1.5
			C418.3,265.5,418.3,266.4,418.3,267.3z"/>
		<path class="st9" d="M600.4,103.9c-0.9,0-1.7,0-2.9,0c0-1.1,0-2,0-2.9C598.5,102,599.5,102.9,600.4,103.9z"/>
		<path class="st8" d="M395.4,171.5c0.1-0.8,0.1-1.8,1.2-1.5c0.4,0.1,0.6,1,0.9,1.5C396.8,171.5,396.1,171.5,395.4,171.5z"/>
		<path class="st9" d="M604.8,108.2c-2.4-0.1-2.4-0.1-3-2.9C602.8,106.3,603.8,107.2,604.8,108.2z"/>
		<path class="st9" d="M597.6,101c-2.1,0-2.1,0-2.2-2.2C596.1,99.6,596.8,100.3,597.6,101z"/>
		<path class="st8" d="M313.2,172.9c-0.2-2.7,1.8-1.2,2.8-1.4C315.1,171.9,314.1,172.4,313.2,172.9z"/>
		<path class="st9" d="M601.9,105.3c-0.6,0-1.1,0-2,0c0.2-0.6,0.4-1,0.5-1.5C600.9,104.3,601.4,104.8,601.9,105.3z"/>
		<path class="st8" d="M418.2,268.8c0.3,0.5,0.6,0.9,0.8,1.4C418.8,269.7,418.5,269.3,418.2,268.8z"/>
		<path class="st9" d="M595.4,98.9c-0.2-0.3-0.5-0.6-0.7-0.8C594.9,98.3,595.2,98.6,595.4,98.9z"/>
		<path class="st10" d="M216.2,664.5c-0.9-0.7-2-1.2-2.8-2c-25.2-25.2-50.5-50.4-75.7-75.6c-3.6-3.6-7.4-7.1-11-10.6
			c-0.2-0.3-0.5-0.5-0.7-0.8l0.1,0c-2.8-4-5.8-7.8-8.4-11.9c-8.3-13-13.2-27.3-16.1-42.4c-2.4-12.7-2.9-25.5-2.1-38.5
			c0.1-0.8,0.1-1.7,0-2.5c0-0.4-0.1-0.8-0.2-1.5c-9,16.1-13.6,44.9-0.1,66.3c-0.2,0.2-0.4,0.3-0.5,0.5c-8.3-6.6-13.7-15.1-16.3-25.3
			c-2.8-10.7-1.8-21.3,1.2-31.8c4.7-16.9,13.4-31.8,23.8-45.7c3.6-4.8,7.6-9.2,11.4-13.8c0.3-0.4,0.5-0.7,1-1.3
			c-2.3-0.6-4.3-1.1-6.3-1.7c-1-0.3-2.1-0.5-3.1-0.9c-4.5-1.7-7.8-4.3-7.3-9.6c-10.2-5.4-12.1-8.7-12.8-21.4c-0.6-0.1-1.3-0.3-2-0.3
			c-10.2,0.7-20.3,0.3-30.3-1.1c-6.6-0.9-13.1-2.7-19.1-5.7c-5.7-2.9-9.9-7.5-13.6-12.5c-6.1-8.2-9.2-17.4-9.6-27.6
			c-0.2-4.4-0.5-8.8-0.7-13.2c-0.1-3.5,0.7-6.9,2.1-10c1.3-2.9,3.1-5.4,7-5.8c0.5,1.9,1,3.9,1.6,5.8c1.7,5.2,2.7,10.7,5.2,15.5
			c4.7,8.7,12,14.3,22.4,15c9.9,0.6,19.5-0.5,28.5-5c8.2-4.1,14.8-10,20.2-17.2c7.1-9.6,12.3-20,15-31.7c1.4-6.1,0.9-12-0.6-18
			c-1.8-7.2-3.8-14.3-5.1-21.5c-2.1-11.7-3.5-23.6-2.7-35.6c0.5-7.2,3.3-13.2,9.3-17.4c11-7.7,23.2-10.2,36.3-7.7
			c5.1,0.9,8.5,4.1,10.4,8.9c1.2,3,1.9,6.1,3,9.1c1,3.1,2.1,6.1,4.8,8.5c1.8-2.4,3.7-4.8,5.3-7.2c10.7-15.9,25.5-26.7,43.1-34.1
			c15.6-6.6,31.7-10.1,48.6-10.2c8.6,0,17.1,1.7,25.4,3.6c25.2,5.8,44.9,19.8,59.5,40.9c5,7.3,8.1,15.6,10.3,24.2
			c3.6,13.7,4.3,27.5,2.3,41.5c-2.3,16.6-8.2,31.7-18.7,44.9c-9.7,12.2-21.9,20.7-37.4,24.1c-2.5,0.6-5.2,0.7-7.8,0.8
			c-4.1,0.1-8.3,0-12.5,0c-0.6,5.7,3.6,10.3,13.5,14.6c-2.5,2.8-6.1,1.6-9,2.7c1,3.2,4.3,3.1,6.6,4.2c2.3,1.1,5,1.6,7.8,2.5
			c-2.6,3.8-6.8,5.3-10.6,7.9c3.2,2.6,7.2,0.8,10.8,2.2c-1.7,3.4-5,4.1-7.8,5.6c0.2,2.5,2,3.9,3.6,5.4c3.6,3.3,6.1,7.2,7,12.1
			c0.7,3.6,0.9,7.2-0.4,10.6c-0.8,2.2-0.3,3.4,1.5,4.9c3.4,2.7,5.2,6.5,5.6,10.8c0.1,1.5-0.3,3-0.6,4.6c-2.2-0.5-4.2-2.2-6.3-0.1
			c4.4,10.7,7,21.9,9.5,33.1c2.6,11.6,4.7,23.3,6.3,35.1c1.5,11.5,2.5,23,2,34.6c0,0.2,0.2,0.4,0.4,1c1,0,2.2,0,3.3,0
			c26.8,0,53.5,0,80.3,0c2.2,0,3.7-0.6,5.3-2.2c10.9-11,21.9-22,32.9-32.9c1.5-1.5,2.3-3,2.3-5.3c-0.1-31.9-0.1-63.8-0.1-95.7
			c0-1,0-2.1,0-3.5c-16.5,0-32.7,0-49,0c0-24.9,0-49.4,0-74.2c56.1,0,112,0,168.2,0c0,1,0.1,1.9,0.1,2.8c0,69.5,0,139,0.1,208.6
			c0,2.6-0.7,4.4-2.6,6.3c-21.8,21.6-43.5,43.4-65.2,65.1c-5.2,5.2-10.4,10.2-15.4,15.5c-2.1,2.2-4.3,3.2-7.4,3.2
			c-64.3-0.1-128.5-0.1-192.8-0.1c-20.3,0-40.6,0-60.9,0c-2.3,0-4-0.7-5.6-2.3c-20.3-20.4-40.6-40.8-61.2-60.9
			c-6.3-6.2-9-13.3-9-21.7c0-7.8,1-15.5,2.4-23.1c2.4-13,5.2-25.9,7.2-39c1.4-9.3,0.6-18.6-4-27.1c-0.4-0.7-0.7-1.5-1-2.3
			c0.1-0.1,0.3-0.3,0.4-0.4c1.2,1.5,2.6,2.8,3.5,4.4c3.8,6.3,7.4,12.7,11.1,19.1c0.1,0.2,0.4,0.3,0.7,0.5c1.4-2.3,1.1-4.9,0.6-7.3
			c-1.4-8-4.9-15.1-9.2-21.9c-5.4-8.7-13.3-13.3-23.3-14.9c-5.5-0.9-10.9,1.5-13.7,6.3c-3.2,5.5-5.1,11.5-6.5,17.7
			c-2.7,12.1-5.1,24.2-5.2,36.7c0,1.2-0.2,2.3-0.2,3.5c5.4-15.6,11.3-30.9,21.8-44.1c0,0.7,0.1,1.4-0.1,2c-4,14.6-4.7,29.4-3.6,44.3
			c0.6,8.3,1.3,16.7,2.3,24.9c1.8,14.7,4.7,29.1,8.2,43.5c0.4,1.6,1.2,2.8,2.3,3.9c23.7,23.7,47.5,47.5,71.1,71.2
			c1.5,1.5,3.1,2.2,5.3,2.2c89-0.1,178-0.1,266.9,0c2.4,0,4.2-0.6,5.9-2.4c30.1-30.2,60.2-60.3,90.4-90.4c1.5-1.5,2.1-2.9,2.1-5
			c0-77,0-154.1,0-231.1c0-0.6,0-1.2,0-1.8c-2.7-0.7-189.5-1-197.8-0.3c0,34.4,0,68.9,0,103.6c16.1,0,32.2,0,48.5,0
			c0.1,1.3,0.2,2.3,0.2,3.4c0,25,0,49.9,0,74.9c0,2.2-0.6,3.7-2.2,5.3c-8.4,8.2-16.6,16.5-24.8,24.8c-1.1,1.1-2.1,1.7-3.7,1.7
			c-23.5-0.1-47.1,0-70.6,0c-0.3,0-0.7-0.1-1.4-0.2c-0.3-4.7-0.7-9.4-1-14.1c1.4,0,2.9-0.1,4.3-0.1c12.7,0,25.3,0,38,0
			c8.1,0,16.2,0,24.4,0c1.3,0,2.5,0,3.6-1.1c5.6-5.8,11.4-11.6,17-17.4c0.6-0.7,1.2-1.3,1.8-2c0.1-0.7,0.3-1.4,0.3-2.1
			c0-18.8,0-37.6,0-56.4c0-0.7-0.2-1.3-0.3-2c-16.3,0-32.3,0-48.4,0c-0.2-0.3-0.4-0.5-0.7-0.8c0-2,0.1-4,0.1-6.1
			c0-39.6,0-79.2,0-118.8c0-1.9,0-3.7,0-5.6c0.4-0.9,0.8-1.7,2-1.6c1.3,0.1,2.6,0,3.9,0c71.7,0,143.5,0,215.2,0
			c1.3,0,2.5-0.3,3.8-0.5c0.4,0,0.8,0,1.1,0c0.3,0.2,0.6,0.4,1,0.6c0,1.1-0.1,2.1-0.1,3.2c0,82.7,0,165.4,0,248.1
			c0,0.8-0.1,1.7,0,2.5c0.2,1.7-0.4,3-1.4,4.2c-1.3,1.4-2.5,2.8-3.8,4.1c-21.1,20.9-42.1,41.8-63.2,62.6c-7,7-14,14-21,21
			c-0.6,0.6-1,1.3-1.6,1.9c-1,0.9-2,1.9-3,2.8c0,0,0,0,0,0c-0.6,0.7-1.2,1.4-1.8,2c-0.2,0-0.3,0.1-0.4,0.2c-1,0.9-1.9,1.8-2.9,2.8
			c0,0,0,0,0,0c-0.3,0.5-0.6,0.9-0.8,1.4c0,0,0,0,0,0c-0.3,0.1-0.8,0.1-1,0.4c-1.8,2.6-4.4,2.7-7.3,2.7c-89.4-0.1-178.9,0-268.3,0
			c-1.4,0-2.9,0.1-4.3,0.1c-0.5,0-1,0-1.4,0C220,664.5,218.1,664.5,216.2,664.5z M143.2,280.3L143.2,280.3c1.4-2.4,2.7-4.8,4.1-7.2
			c0.5-1.8,1.3-3.6,1.4-5.5c0.6-7.8,1.1-15.7,1.4-23.5c0.3-6.5,0.8-13,0.1-19.6c-0.4-3.9-0.5-7.8-0.8-11.7c-0.1-0.9-0.5-1.7-0.8-2.6
			c-2.1-0.3-3.9-0.7-5.8-0.9c-7.7-0.5-14.3,2.2-19.9,7.2c-2.2,1.9-4.5,4.1-4.9,7.2c-0.5,4.4-0.6,8.8-0.9,13.5
			c4.9-2.1,9.2-4.6,14.3-4.7c-0.6,0.8-1.4,1.3-2.1,1.8c-3,2.3-6.1,4.6-9,6.9c-1.3,1-2.5,2.3-2.2,4.2c0.6,4.2,1.2,8.4,1.9,12.7
			c0.3,2.1,0.9,4.3,1.4,6.6c5.5-3.3,9.6-8.1,16.4-9.8c-4,3.5-7.4,6.6-9.7,10.7c-4.5,4.8-5.4,9-2.9,14.1c0,0.1,0,0.3,0,0.4
			c0.5,1.5,1,2.9,1.4,4.4l0,0c0.6,1.4,0.9,2.9,1.8,4c2.2,2.8,5.6,3,8.3,0.6c0.6-0.5,1-1.2,1.6-1.9l0,0c0.9-1,1.8-2,2.6-2.9
			c0.2-0.1,0.3-0.3,0.2-0.5c0.5-0.8,1-1.5,1.5-2.3c0-0.1,0-0.2,0-0.4C142.8,281,143,280.7,143.2,280.3z M31.9,369.2
			c0.2,0.2,0.5,0.4,0.7,0.7c5,4,10.7,6.5,17.3,6.8c1.4-1.9,0.7-4.9,3.7-6.3c0,2.4,0,4.4,0,6.4c5.7,2.1,11.4,0.9,16.9,0.8
			c1-2.9,0.6-6,2.6-8.6c0.8,2.6,1.5,5,2.3,7.5c1.7-0.4,3.1-0.5,4.4-1c4.7-1.4,9.2-3.2,12.9-6.5c1.2-1,1.7-2.1,1.6-3.7
			c-0.2-2.2,0-4.4,0-7.2c2.1,1.9,1.5,4.8,4.1,5.5c0.4-0.3,1-0.6,1.4-1c4.2-4.5,7.4-9.5,9.9-15.2c2.4-5.6,4-11.4,5.4-17.3
			c0.8-3.1,1.2-6.2,1.7-9.3c-0.2-0.1-0.5-0.2-0.7-0.3c-1.6,2.6-3.3,5.1-4.9,7.7c-5,8-10.5,15.7-17.6,21.9c-3.6,3.1-7.5,6-12,7.5
			c-5.4,1.8-10.8,3.7-16.4,4.6c-6.3,1.1-12.8,1.3-18.8-1.7c-3.8-1.9-7.6-3.9-11.3-5.9c-4.6-5.2-8.4-10.8-9.7-17.9
			c-0.5-2.8-1.3-5.8-3.3-9c-0.9,2.2-1.8,3.8-2.1,5.5c-1.1,6.8-0.5,13.4,1.5,20c0.3,0.7,0.5,1.4,0.8,2.1c0.1,0.3,0.3,0.5,0.4,0.8
			c0.5,1,1,2,1.5,3c0.2,0.4,0.5,0.8,0.7,1.3c1,1.4,2,2.8,3,4.3c0.8-0.8,1.3-1.4,2.1-2.4c0,1.9,0,3.1,0,4.4
			C29.8,368.3,30.5,369.1,31.9,369.2C31.9,369.2,31.9,369.2,31.9,369.2z M336.4,214.5c0.3,0.4,0.6,0.7,0.9,1.1
			c0.1-0.1,0.2-0.2,0.4-0.3c-0.3-0.4-0.6-0.7-0.9-1.1c-2.1-4-5.3-7-9.2-10.2c0,1.7,0,3,0,4.6C330.4,210.5,333.4,212.5,336.4,214.5z
			 M266.7,432.5c9.3,3.1,16.6,8.7,21.7,17.1c4.3,7,8.3,14.2,11.2,21.9c0.4,1.1,0.4,2.7,2.4,2.9c0.3-0.4,0.8-0.9,0.8-1.3
			c0-2.5,0.1-5-0.2-7.4c-1.9-12.3-8.1-22.5-15.7-32c-1.4-1.7-3.2-3.2-4.8-4.7c-3.7-3.3-7.5-6.6-11.2-9.9c-0.5-0.4-0.6-1.2-0.9-1.8
			c0.2-0.1,0.4-0.3,0.6-0.4c1.5,1,3,1.9,4.4,3c11.4,8.4,21.7,17.9,29.5,29.8c0.8,1.2,1.6,2.6,3.7,2.9c-0.2-1.4-0.2-2.6-0.5-3.7
			c-3.8-12.2-10.1-23.1-18.3-32.8c-9.9-11.7-21.8-21-34.4-29.5c-0.4-0.2-0.8-0.3-1.4-0.6c-5.7,10.2-6.1,20.9-4.4,32
			c-8.3-4.6-12-5.6-17.5-4.5c1.7,1.1,3,2,4.4,2.9c1,0.6,2.2,1,3,1.8c9,8.1,17.8,16.2,24.8,26.1c2.6,3.6,5.3,7.1,8,10.6
			c0.5,0.7,1.2,1.3,2,2.1c0.3-3.2-0.1-5.5-1.2-8.3c-2.1-5.2-4.3-10.3-6.4-15.5C266.3,432.9,266.5,432.7,266.7,432.5z M285,195.6
			c8.3,1.4,16.4,3.1,24.8,6c0-3.4,0-6.2,0-9.2c-0.3-0.2-0.6-0.4-1.1-0.6c-0.8-0.4-1.5-0.7-2.3-1c-10.2-3.5-20.8-5.8-31.5-7.2
			c-2.6-0.3-5.2-0.4-7.8-0.2c-5.7,0.4-11.4,0.9-17,1.6c-4.1,0.5-8.3,0.9-12.3,1.9c-5.7,1.5-11.4,3.4-16.9,5.4
			c-10.4,3.7-19.4,9.7-26.9,17.7c-4.3,4.6-8.1,9.7-11.6,14.9c-8,12.3-13.8,25.7-17.9,39.8c-1.9,6.3,1.2,12.9,7,15.9
			c4.7,2.5,10.3-0.3,11-5.6c0.8-5.9,1.5-11.8,2-17.7c0.5-6.6,2.7-12.7,5.6-18.6c4.9-9.9,11.3-18.7,19.9-25.8
			c5.2-4.4,10.9-8,17.1-10.8c4.8-2.2,9.8-3.6,14.8-4.9c3-0.3,5.9-0.4,8.9-0.8c7.6-1.1,15.1-1.6,22.8-1.3
			C277.4,195.1,281.2,195.4,285,195.6z M238.3,529.1c0.2,0.1,0.5,0.3,0.7,0.4c0-0.3-0.1-0.6-0.1-0.9c-0.3-1-0.6-2.1-0.9-3.1
			c-5.7-17-11.4-34-17.1-51c-1.7-5-3.4-9.9-5.2-15.2c2.6,0.5,4.1,2.1,5.6,3.5c4.8,4.3,8,9.7,11.3,15.1c8.4,13.7,15.8,28,23,42.4
			c2.3,4.5,4.5,9.1,6.7,13.6c0.7-2.6,1-5.1,1.1-7.6c0-9.4-1.2-18.8-2.4-28.1c-0.4-2.9-0.7-6-1.8-8.7c-4.8-11.2-9.8-22.2-18.3-31.3
			c-3.9-4.2-7.5-8.7-11.4-13.2c1.2,0.2,2.4,0.3,3.4,0.7c2.6,1.1,5.3,2.2,7.8,3.6c13.6,7.7,24.1,18.6,32.2,31.9
			c0.4,0.6,0.9,1.2,1.4,1.8c0.6-1.5,0.6-2.7,0.4-3.9c-0.1-0.8-0.6-1.6-0.9-2.3c-3-6.8-5.3-13.9-9.7-19.8
			c-6.6-8.8-14.3-16.7-23.2-23.2c-12.4-9.2-26.3-15.8-40.6-21.4c-0.6-0.2-1.2-0.3-2.5-0.6c0.9,1.6,1.4,2.6,2,3.6
			c3.6,6.4,7.4,12.8,10.9,19.2c2.1,3.9,2.5,8,1.5,12.7c-0.8-0.4-1.3-0.5-1.8-0.9c-4.6-3.4-9.1-6.9-13.8-10.2
			c-6.8-4.7-13.9-8.7-22.1-10.6c-2.5-0.6-4.7-0.2-6.9,0.8c-4.8,2.2-5.7,5.5-2.3,9.6c1.5,1.8,3.3,3.5,5.1,5
			c8.8,7.3,14.3,16.5,16.8,27.5c0.6,2.6,1.2,5.1,1.4,7.7c0.4,4,1.1,8.1,0.7,12.1c-0.6,5.9-1.9,11.7-3.1,17.6
			c-1.3,6.1-2.1,12.2-0.3,18.3c2.3,7.9,6.6,14.5,12.3,20.2c2.6,2.6,6,4.4,9.8,4.9c3.8,0.5,6.1-2.1,5.4-5.8
			c-0.9-4.4-1.8-8.8-2.8-13.3c-3-14.3-6-28.6-9.1-43c-0.4-1.6-0.4-3,1-4.6c5.1,1.3,9.7,3.6,12.8,8.1c3.6,5.4,6.8,10.9,10.1,16.4
			C229.8,514.5,234,521.8,238.3,529.1z M295.8,238.8c-0.7,1.2-1.4,2.5-2.1,3.8c0.4,0.2,0.7,0.4,1,0.6c7.7,3.5,14.3,8.4,18.8,15.7
			c0.7,1.2,1.7,1.5,3,1.4c3-0.3,5.9,0.4,8.7,1.6c2,0.9,4.2,1.6,5.2,3.9c-0.1,0.1-0.2,0.2-0.3,0.3c-4.2-0.8-8.4-1.3-13.1-0.4
			c0.5,4.7,1,9.2,1.5,13.8c5.1,0.5,9.6,1.7,12.7,5.7c-4.2-1.5-8.3-2.6-13-1.8c-0.5,1.4-1.1,3-1.7,4.5c-1.7,4.6-3.2,9.2-6.7,12.8
			c-2,2.1-4.1,3.9-6.2,5.8c-3.4,1.7-6.8,3.5-10.2,5.2c-0.9,0.2-1.9,0.3-2.8,0.5c-7.3,2-14.1,1-20.5-3c-4.1-2.6-7.4-6-10.3-9.8
			c-1.2-1.6-2.3-3.2-3.5-4.9c-6.3,8.9-3.2,23.8,6.3,30c1.3-1.6,2.7-3.2,4.1-4.8c0.2,0.1,0.4,0.2,0.6,0.3c-0.8,2.1-1.6,4.2-2.4,6.3
			c5.2,5.2,16.7,8.5,22.3,6.5c0.9-2.5,1.8-5,2.7-7.4c0.2,0,0.5,0.1,0.7,0.1c0.1,2.5,0.3,5,0.4,7.7c5.6,0.3,10.7-0.7,15.6-3.1
			c2.9-0.9,4.1-2.8,3.7-5.8c-0.2-1.3-0.1-2.6-0.1-3.9c1.5-0.5,1.5,0.8,1.9,1.6c0.6,1.4,1,2.8,1.3,4c0.6,0.1,0.7,0.1,0.8,0.1
			c0.4-0.2,0.9-0.4,1.3-0.6c10.7-5.4,17.6-14.3,23-24.6c1-2,1.8-4.1,2.4-6.3c2.3-7.6,3.2-15.3,3.1-23.2c0-1.1-0.5-2.4,0.9-3.2
			c0.2,0.3,0.3,0.6,0.5,1c0.2,0.4,0.4,0.9,0.6,1.3c2.5,8,2.2,16.1,0.4,24c-4.2,18.2-16.3,30.1-32.4,38c-10.1,5-20.9,6.8-32.2,5.2
			c-11.4-1.6-20.1-7.3-26.5-16.8c-2.5-3.7-3.6-7.9-5.2-12c0-0.9,0.1-1.9-0.2-2.8c-1.2-4.4-0.3-8.7,0.6-12.9c0.3-0.7,0.5-1.4,0.8-2.2
			c1.4-2.1,2.8-4.2,4.2-6.3c-4,1-7.4,4-9.4,8.5c-1.4,2-1.9,4.3-2,6.7c-0.3,7.9,1.4,15.3,4.8,22.4c6.7,14.4,18.4,21.8,33.8,23.1
			c7.7,0.6,15.5,0.6,23.2-0.5c8.7-1.3,16.9-3.6,24.1-8.9c2.5-1.8,5.1-3.6,7.4-5.6c6.1-5.4,11.3-11.5,14.3-19.3
			c3.5-8.8,5.6-17.8,6.5-27.2c0.7-7.8,0.6-15.5-1-23.1c-3.3-15.5-10.9-28.5-23.2-38.7c-14.1-11.6-30.4-17.9-48.6-19.1
			c-10.8-0.7-21.6-0.3-32.4,1.9c-19.3,4-35.7,12.9-48.3,28.2c-7,8.5-12.4,18-15.6,28.6c-1.3,4.3-2,8.7-2.4,13.1
			c8.3,1.4,20.8-0.6,27.5-3.2c0.8-0.3,1.4-1.2,1.9-1.9c2-2.5,3.9-5.1,6-7.6c1.9-2.3,3.9-4.4,5.7-6.4c-1.6-11.8,2.6-21.9,7.2-32
			c0.2,1.9,0.2,3.8,0.2,5.7c-0.2,4.2-0.4,8.3-0.6,12.5c-0.1,2.6,0.7,5.1,1.8,7.5c6.8-2.4,13.4-4.8,20.1-7.2
			c1.7-5.3,3.6-10.6,7.3-15.1c1,0,2,0,3,0.1c-1.9,4.3-3.3,8.8-3.2,14c7.8,0.6,15.6,0,22.8,0.3c2.6-2.2,4.7-4,6.9-5.8
			C295.7,236,295.7,236,295.8,238.8z M127,307.1c3.4,2.7,3.7,6.2,2.6,10c-1.1,3.8-1.9,7.6-3.4,11.2c-3.7,9-7.8,17.8-11.6,26.8
			c-1.2,2.8-2.8,5.2-5.1,7.2c-2.8,2.5-5.7,5.1-8.2,8c-2.8,3.1-4.1,6.8-4.1,11.1c0,4.3,0.5,8.6,1.6,12.7c0.7,2.5,1.5,5,2.8,7.3
			c2.3,4.1,6.4,5,10.6,2.7c-2.2-4-2.5-8.4-2.1-12.7c0.4-4.8-1.7-8.2-4.9-11.3c-2.2-2.1-3.2-2.2-5.6-0.4c0.1-2.6,0.6-4,1.6-5.3
			c1.3-1.7,3-2,4.7-0.8c0.9,0.7,1.7,1.6,2.5,2.5c0.9,1,1.8,2.2,2.7,3.2c11.5-6.6,11.5-6.6,16.3-6.4c0.5,0.9,1,1.9,1.9,3.5
			c0.8-1.3,1.5-2.1,1.9-2.9c0.8-1.8-0.9-2.9-1.5-4.2c0.4-0.3,0.5-0.4,0.5-0.4c2.8,0.7,3.7,1.7,3.9,4.3c0.3,4.3-1.9,8.2-5.3,9.5
			c-0.2-0.7-0.5-1.5-0.8-2.5c-3.3,1.2-6.4,2.2-9.5,3.5c-2.5,1-3.8,3.2-4.3,5.8c-0.4,2.2-0.7,4.5-0.7,6.7c0,2.9,1.3,5.3,3.5,7.2
			c1.8,1.6,3.9,1,5.8,0.5c3.9-1.1,7.9-2.1,11.5-3.7c5.3-2.4,10.4-5.2,15.5-8c2.9-1.5,5.9-1.9,8.9-0.8c2.3,0.8,2.6,1.7,1.6,4.5
			c-1.1-0.3-2.3-0.6-3.4-1c-3.5-1-6.6-0.6-9.7,1.8c-5.5,4.3-11.7,7.2-18.3,9.4c-5,1.7-9.8,1.8-14.5-0.7c-1.8,0.9-3.6,1.8-5.4,2.7
			c0.1,3.8,0.8,4.9,3.7,6.3c1,0.5,2,0.9,3,1.2c6.4,1.8,10.4,5.9,12.2,12.3c0.4,1.2,0.8,2.4,1.5,4.4c1.3-2.9,2.2-5.1,3.3-7.5
			c5.2,3.7,10.8,4.5,16.9,4.4c-4.8-4.5-5.4-7.3-2.9-12.1c4.2,5.8,4.2,5.8,7.4,6.1c-1.3-5.7,0.7-10.6,4.3-14.8
			c5.4-6.4,12-11.2,19.8-14.3c4.5-1.8,9-2.1,13.5-0.2c2,0.8,4,1.5,6,2.3c6.2,2.3,12.5,4.7,19.2,5.4c9.7,1,17.9-1.8,23.7-10.1
			c4.3-6,6.3-12.7,6.6-20.1c0.2-4.2-1.2-7.8-3.9-10.8c-1.5-1.7-3.2-3.3-5.1-4.5c-2.9-1.8-6.1-3.2-9.4-4.9c0.6-0.4,1.2-0.8,1.8-1.1
			c5.6-3.3,9-8.2,9.8-14.6c0.4-3.5,0.5-7.2-0.2-10.7c-1.4-6.1-3.5-12-5.3-17.9c-6.3-1.1-10.8,1.2-14,6.1c-1.3,2-2.6,4-3.8,6.1
			c-0.9,1.7-2.3,2.6-4.1,3.2c-4.6,1.4-9.3,2.9-13.9,4.3c-3.5-2.1-6.9-4.1-10.7-6.4c-9.9,10.8-19.7,21.5-29.7,32.3
			c-1.2-2.7-0.1-4.7,1.3-6.5c5.6-7.5,11.2-15.1,16.9-22.6c1.1-1.4,1.3-2.8,0.5-4.3c-0.5-0.9-1.1-1.8-1.7-2.7
			c-1.6-2.4-3.2-4.7-4.7-7.2c-1.7-2.7-1.5-5.5,0.5-8c2.8-3.6,6.5-5.4,11.7-5.4c-1.9,1.3-3.3,2.2-4.6,3.2c-4.3,3.3-3.9,7.7-0.7,10.3
			c0.6,0.5,1.2,1.1,1.8,1.7c1.3,1.3,2.7,1.5,4.5,0.8c6.6-2.6,13.4-5,20-7.6c5.4-2.2,11-2.7,16.8-2.3c3.8,0.3,7.7,0.1,11.7,0.1
			c-3.7-7.3-8-14.3-5.8-23.3c-2.2,0.1-4.2,0.1-6.2,0.3c-3.9,0.3-7.9,0.6-11.7,1.1c-7.4,1-14.9,1.8-22.2,3.5
			c-7.6,1.8-15,4.5-22.5,6.8c-1,0.3-2,0.5-3.1,0.7c-1.3-5.3-1.5-10.7-5.4-14.8c-2.5,0.1-3.8,1.8-5.1,3.5c-1.7,2.3-3.2,4.8-5.1,6.8
			c-3.6,3.8-7.5,7.3-11.3,10.9C131.3,300.5,128.4,303.1,127,307.1z M266.3,272.4c-0.4,2.4-0.9,4.4-1.1,6.4
			c-0.6,5.1-1.5,10.2-0.3,15.3c1.3,5.9,5.8,7.8,10.5,4c3.1-2.5,6.2-5.3,8.8-8.3c6.7-7.9,9.2-17,6.5-27.3c-0.7-2.6-2.1-4-4.8-4.5
			c-7.1-1.3-14-1-20.8,1.5c-8,2.9-14.5,8.1-20.5,14c-5.4,5.2-6.8,11.5-5.9,18.6c0.2,1.2,0.1,2.6,1.7,3.5c1.3-2.3,2.6-4.6,3.9-6.9
			c2.6-4.3,5.4-8.5,9.2-11.8C257,273.9,260.9,271.4,266.3,272.4z M293.8,380.8c-0.7-1-1-1.8-1.5-2.3c-3.7-3.3-7.6-6.6-11.2-10
			c-2.1-1.9-4.1-4-5.8-6.2c-2.4-3.1-3.8-6.6-3.3-10.6c0.1-0.7,0-1.4,0-1.9c-6.7-3.4-13.2-6.8-19.8-10.2c0.3,1.5,0.6,3.1,1,4.7
			c1.9,7.1,4,14.2,5.6,21.4c0.9,3.8,2.3,7.2,4.3,10.5c1.7,2.8,3.5,5.7,5.5,8.3c1.4,1.9,3.1,3.7,4.9,5.1c10.7,7.8,20,16.8,26.9,28.3
			c0.6,1,1.3,2.3,3,2.3c0-0.8,0.1-1.5,0-2.2c-1.4-8-5.2-14.8-10.3-20.8c-3.7-4.4-7.6-8.6-11.3-12.9c-1.4-1.6-2.9-3.1-3.5-5.7
			C283.4,380.4,288.2,381.4,293.8,380.8z M235.9,279.5c0.4-0.9,0.8-1.6,1.1-2.3c2.8-7.2,7.7-12.7,13.9-17.2
			c10.4-7.4,21.9-10.4,34.6-9.9c8.7,0.3,15.2,4.2,19.8,11.5c3.8,6.1,5.2,12.7,3.2,19.8c-1.4,5.2-4.2,9.6-7.7,13.5
			c-1.6,1.8-3.8,3.2-5.7,4.8c-1,0.9-2,1.8-3.5,3.1c3.6-0.5,5.2-1,7.3-2.3c4.8-3,7.9-7.5,10.3-12.5c3.5-7.4,4.2-15.1,1.4-22.8
			c-2.4-6.7-7.2-11.4-13.5-14.6c-8.2-4.2-16.9-4.5-25.8-3.7c-1.2,0.1-2.3,0.6-3.4,1c-8.8,3.2-16.8,7.9-23.9,13.9
			c-3.5,2.9-6.6,6.2-8.4,10.5C234.7,274.5,234.4,276.9,235.9,279.5z M155.4,215.1c0,5.9,0,11,0,16c0,5,0,10-0.1,15
			c-0.1,5-0.5,10-0.8,15.7c2.5-2,4.5-3.4,6.2-5c5.1-5.2,6.8-11.5,4.5-18.3c-2.3-7.1-5.3-13.9-8-20.9
			C157,217,156.4,216.4,155.4,215.1z M45.1,380.4c0,0.4-0.1,0.7-0.1,1.1c2.7,0.9,5.3,2,8,2.6c12.2,2.7,24.3,1.9,36.4-0.7
			c2.7-0.6,3.2-2.3,1.7-4.8c-4.5,0.7-8.9,1.5-13.4,2.2c-8.5,1.3-17,1.7-25.5,0.1C49.9,380.4,47.5,380.6,45.1,380.4z M207,308.5
			c0,5.5-1,7.5-4.3,8.4c-1.3,0.3-2.8,0.3-4.1,0c-2.3-0.4-3.1-2.6-4.3-4.6c-1.1,0.8-2.1,1.4-3.1,2.1c0.8,1.5,1.5,2.7,2.2,3.9
			c2.6,3.9,5.5,5.1,10.1,3.8c1.8-0.5,3.5-1.3,5.3-2c3.7-1.3,5.1-4.4,6-7.8c0.4-1.5,0.6-3.3-0.8-5C211.7,307.7,209.4,308,207,308.5z
			 M312.4,194c0,3.2,0,5.9,0,8.7c4.2,1.5,8.3,2.9,12.7,4.4c0.1-1.9,0.2-3.5,0.2-5C321.1,199,317.4,195.7,312.4,194z"/>
		<path class="st11" d="M174,211.9c-1-2.8-1.6-4.6-2.4-6.3c-3.2-7.7-9-12.2-17.1-13.5c-4.6-0.7-9.2-0.8-14.1-1.1
			c0-0.5-0.2-1.4-0.2-2.3c0-17.9,0-35.8,0-53.7c0-1.9,0.6-3.3,1.9-4.7c13.8-13.8,27.7-27.7,41.5-41.6c13.7-13.8,27.4-27.6,41.1-41.5
			c1.3-1.4,2.7-2,4.6-2c85.3,0.1,170.6,0.1,255.8,0c1.8,0,3.1,0.5,4.4,1.8c15.6,15.8,31.3,31.5,47,47.2
			c11.9,11.9,23.7,23.9,35.6,35.8c1.2,1.2,2,2.4,2,4.3c-0.1,33,0,65.9-0.1,98.9c0,0.3-0.1,0.7-0.1,1c-2.7,0.7-111.8,0.9-119.2,0.2
			c0-1.2-0.1-2.5-0.1-3.7c0-18.8,0-37.5,0-56.3c0-2.3-0.6-4-2.3-5.7c-11.1-11.3-22.2-22.7-33.2-34.2c-1.2-1.3-2.5-1.9-4.3-1.9
			c-38.2,0.1-76.4,0.1-114.7,0c-2.1,0-3.3,1-4.6,2.2c-10.3,10.3-20.7,20.5-31,30.8c-1,1-2,1.9-3.6,2c-15.2,0.9-29.8,4.7-43.8,10.7
			c-13.2,5.6-25.1,13.1-35.3,23.3c-2.4,2.4-4.5,5.3-6.7,7.9C174.8,210.1,174.6,210.8,174,211.9z"/>
		<path class="st12" d="M424.7,182.2c-3.8-3.9-7.3-8.2-11.4-11.7c-2.3-2-4.8-3.8-6.6-6.3c-0.6-2.3-2.4-1.5-3.8-1.5
			c-29.5,0-59,0-88.4,0c-1.1,0-2.2-0.1-3.2,0.1c-0.5,0.1-0.9,0.8-1.4,1.3l0,0c-2.1,2-4.2,3.9-6.3,5.9c-0.7,0.7-1.4,1.4-2.1,2.1
			c-3-0.5-6.1-1.1-9.1-1.7c-2.5-0.5-4.9-1-7.6-1.6c0.5-0.7,0.9-1.4,1.4-1.9c5.7-5.8,11.5-11.5,17.2-17.3c1.2-1.3,2.5-1.6,4.1-1.6
			c23.3,0,46.6,0,69.9,0c10.5,0,21,0.1,31.5,0c2.2,0,3.7,0.7,5.2,2.3c8.2,8.6,16.6,17.2,25,25.7c1.4,1.4,1.4,2.9,1.4,4.5
			c0,18.3,0,36.5,0,54.8c0,4.8,0,9.5,0,14.5c49.7,0,99.3,0,149.2,0c0-1,0-2,0-2.9c0-39.4,0-78.8,0.1-118.2c0-1.8-0.5-3.1-1.8-4.4
			c-8.1-8-16.1-16-24.1-24c-21.9-22-43.8-43.9-65.6-66c-2.4-2.5-4.8-3.5-8.3-3.5c-88.3,0.1-176.5,0.1-264.8,0
			c-2.7,0-4.6,0.7-6.5,2.7c-16.2,16.4-32.5,32.7-48.7,49c-13.9,14-27.7,28-41.6,41.9c-1.5,1.5-2.1,2.9-2.1,5c0.1,20.4,0,40.8,0,61.3
			c0,1.2,0,2.4,0,3.4c-5,2.8-9.8,5.5-14.6,8.1c0-25.7,0.1-51.4,0-77c0-3.1,0.8-5.3,3-7.5c19-18.8,37.8-37.8,56.7-56.8
			c9.8-9.8,19.4-19.7,29.1-29.6c1.8-1.8,3.3-4,5.1-5.8c2.8-2.7,5.7-5.4,8.6-7.9c0.6-0.6,1.6-0.9,2.5-1c1.9-0.1,3.8-0.1,5.7-0.1
			c91,0,182,0,273-0.1c3.9,0,6.6,1,9.3,3.8c32.2,32.6,64.6,65.1,96.9,97.6c0.7,0.7,1.4,1.3,2.1,1.9c0,0.2,0.1,0.4,0.3,0.6
			c0,0.5,0.1,1,0.1,1.5c0,0.2,0,0.5,0,0.7c0,0.5,0,0.9,0,1.4c-0.1,1.1-0.2,2.1-0.2,3.2c0,44.6,0,89.2,0,133.8c0,0.9,0.1,1.9,0.2,2.8
			c-0.5,0.2-1,0.6-1.5,0.7c-1.1,0.1-2.1,0-3.2,0c-55.1,0-110.2,0-165.3,0c-1.4,0-2.9,0.1-4.3,0.1c-1.1-0.1-2.3-0.2-3.6-0.3
			c0-1.4,0-2.6,0-3.8c0-9.9,0-19.8,0-29.6c0-14.8,0-29.5,0-44.3C426.2,185,426.7,183.2,424.7,182.2z"/>
		<path class="st0" d="M335.9,508.9c21,0,42,0,63,0.1c2.3,0,4-0.6,5.6-2.3c3.5-3.7,7.2-7.3,10.9-10.9c1.1-1.1,1.6-2.2,1.6-3.7
			c-0.1-15.2-0.1-30.3-0.1-45.5l0.1-0.1c1.4,0,1.4,1,1.4,2c0,3.5,0,6.9,0,10.4c0,9.9,0,19.8,0,29.7c0,0.8-0.5,2,1.4,2.4
			c0-15.4,0-30.5,0-45.9c1.2,0.1,2,0.2,2.8,0.3c0,15.1,0,30,0,45.1c-1.5,0.4-2.7,1.2-1.8,3.2c0.2,0.5,0.1,1.3-0.1,1.9
			c-0.3,1-0.7,2-1,2.8c-0.7,0.2-1.3,0.3-4.2,3.8c-2-0.1,2.1-0.9,2.2-4.4c-2.5,0.3-4,1.4-5.1,3.4c-0.4,0.8-0.5,2.3-2.1,1.4
			c-0.1,0.6-0.5,1.6-0.4,1.6c0.8,0.5,1.7,0.7,5.3-2.1c3-2.7,3.7-2.2,4.6-1.6c1.4-1.7,2.7-3,4.9-3c-0.2,0.8-0.4,1.6-0.6,2.3
			c-5.7,5.8-11.4,11.6-17,17.4c-1.1,1.1-2.3,1.1-3.6,1.1c-8.1,0-16.2,0-24.4,0c-12.7,0-25.3,0-38,0c-1.4,0-2.9,0.1-4.3,0.1
			C336.5,515.2,336.2,512.1,335.9,508.9z M409.7,509.5c0-1.6-0.3-3.3-2.3-4.1c-1,1.3-1.8,2.5-2.7,3.8c0.4,0.6,0.8,1.3,0.9,1.5
			C407.1,510.2,408.2,509.9,409.7,509.5z"/>
		<path class="st10" d="M139.2,457.2c-0.1-0.1-0.3-0.2-0.4-0.2c0.1-0.1,0.2-0.2,0.2-0.2c0.2,0,0.3,0.1,0.5,0.2
			C139.4,457,139.3,457.1,139.2,457.2z"/>
		<path class="st10" d="M158.6,458.3c-0.1-0.3-0.2-0.6-0.3-0.8c0.2,0.1,0.5,0.3,0.7,0.4C158.9,458,158.7,458.1,158.6,458.3z"/>
		<path class="st9" d="M368.1,312.6l-0.3,0l-0.3,0.1c0.2-0.3,0.4-0.6,0.6-1C368.1,311.9,368.1,312.2,368.1,312.6z"/>
		<path class="st9" d="M369.6,307.5c-0.2,0.2-0.3,0.4-0.5,0.7C369.3,307.9,369.4,307.7,369.6,307.5z"/>
		<path class="st10" d="M99.1,545.1c0,0.3,0,0.7,0.1,1c-0.2-0.2-0.4-0.4-0.6-0.6C98.7,545.4,98.9,545.2,99.1,545.1z"/>
		<path class="st9" d="M368.8,310.2c-0.2,0.3-0.4,0.6-0.5,0.9C368.4,310.8,368.6,310.5,368.8,310.2z"/>
		<path class="st13" d="M372.6,445c-0.3-0.2-0.6-0.4-0.9-0.7c0.4-2.3-1.5-3.8-2.1-5.7c1.3-1.1,0.6-2.5,0.5-3.8
			c0-0.2-0.8-0.3-1.2-0.5c0-39.2,0-78.4,0-117.5c0.6,0,1.2,0.1,2.1,0.1c0,19.5,0,38.9,0,58.4c0,19.4,0,38.8,0,58.7
			c1.9-1,3-1.8,2.9-3.5c0-0.5,0-1,0-1.4c0-35.3,0-70.7,0-106c0-3.2-0.6-6.1-3.4-8.1c0.6-1,1.6-1.9,1.9-3c0.3-1.2,0.1-2.6,0.1-4.2
			c1.3-0.1,2.4-0.1,3.6-0.2c0,41.8,0,83.6,0,125.4c-0.2,0.1-0.4,0.2-0.5,0.4c0.2,0.1,0.4,0.2,0.5,0.4c0,0.2,0,0.5,0,0.7
			c-2.8,0.6-0.7,2.6-1.4,3.7c1.8,1.1,3.4,2.1,4.8,2.9c-0.2,1.7-0.3,2.9-0.4,4.1C376.8,445.1,374.7,445.1,372.6,445z"/>
		<path class="st14" d="M223.4,664.5c1.4,0,2.9-0.1,4.3-0.1c89.4,0,178.9,0,268.3,0c2.9,0,5.5,0,7.3-2.7c0.2-0.2,0.6-0.3,1-0.4
			c0,0.8,0.1,1.6,0.1,2.5c-0.6,0.1-1.4,0-1.6,0.3c-1.7,1.9-4,1.6-6.2,1.6c-89.7,0-179.4,0-269.1,0c-1.1,0-2.2,0.1-3.2-0.1
			C223.9,665.7,223.7,664.9,223.4,664.5z"/>
		<path class="st15" d="M602.6,562.6c1-1.2,1.7-2.5,1.4-4.2c-0.1-0.8,0-1.7,0-2.5c0-82.7,0-165.4,0-248.1c0-1.1,0-2.1,0.1-3.2
			c0.4,0.3,1.2,0.5,1.3,0.9c0.2,0.9,0.1,1.9,0.1,2.9c0,82.4,0,164.8,0,247.1c0,1.6-0.4,3.2-0.6,4.9c-0.1,0.7,0.1,1.3,0.3,2.3
			C604.2,562.6,603.4,562.6,602.6,562.6z"/>
		<path class="st9" d="M603.1,304c-0.4,0-0.8,0-1.1,0c-1.2,0-2.4-0.1-3.6-0.1c-72.1,0-144.3,0-216.4,0c-1.1,0-2.3,0-3.4,0
			c0-0.2,0-0.4,0-0.5c75.3,0,150.5,0,225.8,0c0,0.1,0,0.3,0.1,0.4C603.9,303.8,603.5,303.9,603.1,304z"/>
		<path class="st9" d="M368.9,316.8c0,39.2,0,78.4,0,117.5c0.2,1.4,0.5,2.9,0.7,4.3c0.6,1.9,2.5,3.4,2.1,5.7
			c-2.6-1.5-3.7-3.9-3.6-6.8c0-2.5,0-5,0-7.5c0-39.2,0-78.3,0-117.5C369.8,313.7,368.4,315.4,368.9,316.8z"/>
		<path class="st9" d="M376,434.3c0-0.2,0-0.5,0-0.7c0-0.2,0-0.5,0-0.7c0-41.8,0-83.6,0-125.4c-0.6-1.1-0.5-1.7,0.9-1.4
			c0,1.9,0,3.7,0,5.6c0,39.6,0,79.2,0,118.8c0,2-0.1,4-0.1,6.1C375.6,436.1,376.2,435.1,376,434.3z"/>
		<path class="st13" d="M376.7,301.3c-0.4,1.1-0.6,2-1,3c-0.9,0.3-1.9,0.6-3.1,1c0-0.7-0.3-1.3-0.1-1.8
			C373.3,301.8,374.8,301.2,376.7,301.3z"/>
		<path class="st14" d="M510.1,655.1c1-0.9,2-1.9,3-2.8c0.6,1,1.3,1.9,1.7,2.6c-0.1,0-0.7,1.8-1.9,0.1
			C512.6,654.8,511,655.3,510.1,655.1z"/>
		<path class="st14" d="M216.2,664.5c1.9,0,3.8,0,5.7,0c-0.2,0.4-0.3,1.1-0.5,1.1c-1.6,0.1-3.2,0.1-4.7,0
			C216.5,665.6,216.4,664.9,216.2,664.5z"/>
		<path class="st14" d="M505,660.1c1-0.9,1.9-1.8,2.9-2.8c0,0.8,0,1.6,0,2.6C506.8,660,505.9,660,505,660.1z"/>
		<path class="st14" d="M508.3,657.1c0.6-0.7,1.2-1.4,1.8-2C510.1,656.3,510.1,657.5,508.3,657.1z"/>
		<path class="st14" d="M504.2,661.4c0.3-0.5,0.6-0.9,0.8-1.4C504.7,660.5,504.5,661,504.2,661.4z"/>
		<path class="st2" d="M125.9,575.5c0.2,0.3,0.5,0.5,0.7,0.8C126.4,576,126.2,575.7,125.9,575.5z"/>
		<polygon class="st14" points="514.2,656.9 513.9,657 513.9,656.7 		"/>
		<path class="st15" d="M604.1,263.8c-0.1-0.9-0.2-1.9-0.2-2.8c0-44.6,0-89.2,0-133.8c0-1.1,0.1-2.1,0.2-3.2c0.4,0.3,1.1,0.6,1.2,1
			c0.2,0.8,0.1,1.7,0.1,2.5c0,44.3,0,88.5,0,132.8c0,0.8,0.1,1.7-0.1,2.5C605.2,263.2,604.5,263.4,604.1,263.8z"/>
		<path class="st9" d="M424.7,182.2c1.9,1,1.5,2.8,1.5,4.4c0,14.8,0,29.5,0,44.3c0,9.9,0,19.8,0,29.6c0,1.2,0,2.4,0,3.8
			c1.3,0.1,2.4,0.2,3.6,0.3c0,0.4,0,0.9,0,1.3l0,0c-0.2,0-0.5,0-0.7,0c-0.5,0-1,0-1.4,0c-0.7,0-1.4,0-2.1,0
			c-1.2-1.8-1.8-3.6-0.8-5.7c0.2-0.5,0-1.2,0-1.8C424.8,233,424.8,207.6,424.7,182.2z"/>
		<path class="st15" d="M604.1,122.6c0-0.2,0-0.5,0-0.7C604.1,122.1,604.1,122.3,604.1,122.6z"/>
		<path class="st15" d="M604.1,120.4c-0.2-0.2-0.2-0.4-0.3-0.6c0.2,0,0.4,0.1,0.7,0.1C604.3,120.1,604.2,120.2,604.1,120.4z"/>
		<path class="st16" d="M310,164c0.5-0.4,0.9-1.2,1.4-1.3c1-0.2,2.1-0.1,3.2-0.1c29.5,0,59,0,88.4,0c1.4,0,3.2-0.8,3.8,1.5
			c-30.9,0-61.7,0-92.6,0C312.8,164.1,311.4,164.1,310,164z"/>
		<path class="st16" d="M303.6,169.9c2.1-2,4.2-3.9,6.3-5.9c0,1.4-0.1,2.7-2,3.1c-0.8,0.2-1.4,1.4-2.2,2
			C305.2,169.6,304.3,169.6,303.6,169.9z"/>
		<path class="st4" d="M425.5,265.9c0.7,0,1.4,0,2.1,0c-0.2,0.4-0.5,0.9-0.7,1.3C426.4,266.8,426,266.3,425.5,265.9z"/>
		<path class="st4" d="M417.6,186.4c0-0.5-0.1-0.9-0.1-1.4C418.7,185.4,418.6,185.8,417.6,186.4z"/>
		<path class="st4" d="M429.1,265.9c0.2,0,0.5,0,0.7,0c-0.1,0.2-0.2,0.4-0.4,0.6C429.3,266.3,429.2,266.1,429.1,265.9z"/>
		<path class="st17" d="M127,307.1c1.4-4,4.3-6.7,7.1-9.4c3.8-3.6,7.7-7.1,11.3-10.9c2-2,3.5-4.5,5.1-6.8c1.3-1.7,2.5-3.5,5.1-3.5
			c3.9,4,4.2,9.5,5.4,14.8c1.1-0.2,2.1-0.4,3.1-0.7c7.5-2.3,14.9-5.1,22.5-6.8c7.3-1.7,14.8-2.5,22.2-3.5c3.9-0.5,7.8-0.8,11.7-1.1
			c2-0.2,4-0.2,6.2-0.3c-2.3,9,2.1,16,5.8,23.3c-4,0-7.8,0.2-11.7-0.1c-5.8-0.4-11.4,0.1-16.8,2.3c-6.6,2.6-13.3,5-20,7.6
			c-1.8,0.7-3.2,0.5-4.5-0.8c-0.6-0.6-1.2-1.2-1.8-1.7c-3.3-2.6-3.6-7,0.7-10.3c1.3-1,2.7-1.9,4.6-3.2c-5.3,0-8.9,1.8-11.7,5.4
			c-2,2.5-2.2,5.2-0.5,8c1.5,2.4,3.1,4.8,4.7,7.2c0.6,0.9,1.2,1.8,1.7,2.7c0.8,1.5,0.6,2.9-0.5,4.3c-5.7,7.5-11.3,15-16.9,22.6
			c-1.4,1.9-2.5,3.8-1.3,6.5c9.9-10.8,19.7-21.5,29.7-32.3c3.8,2.3,7.2,4.3,10.7,6.4c4.7-1.5,9.3-2.9,13.9-4.3
			c1.8-0.5,3.2-1.5,4.1-3.2c1.2-2.1,2.5-4.1,3.8-6.1c3.3-5,7.7-7.2,14-6.1c1.8,5.9,3.9,11.8,5.3,17.9c0.8,3.4,0.7,7.2,0.2,10.7
			c-0.8,6.4-4.2,11.3-9.8,14.6c-0.6,0.4-1.2,0.7-1.8,1.1c3.2,1.6,6.4,3,9.4,4.9c1.9,1.2,3.6,2.8,5.1,4.5c2.7,3.1,4,6.7,3.9,10.8
			c-0.3,7.3-2.3,14-6.6,20.1c-5.8,8.3-14,11.1-23.7,10.1c-6.7-0.7-12.9-3-19.2-5.4c-2-0.8-4-1.5-6-2.3c-4.5-1.9-9-1.6-13.5,0.2
			c-7.8,3.1-14.3,8-19.8,14.3c-3.7,4.3-5.6,9.1-4.3,14.8c-3.2-0.3-3.2-0.3-7.4-6.1c-2.5,4.8-1.8,7.6,2.9,12.1
			c-6.1,0-11.7-0.7-16.9-4.4c-1.1,2.4-2,4.6-3.3,7.5c-0.7-1.9-1.1-3.2-1.5-4.4c-1.8-6.3-5.8-10.5-12.2-12.3c-1-0.3-2-0.7-3-1.2
			c-2.9-1.5-3.6-2.6-3.7-6.3c1.7-0.9,3.5-1.8,5.4-2.7c4.7,2.5,9.5,2.4,14.5,0.7c6.6-2.3,12.9-5.2,18.3-9.4c3.1-2.4,6.1-2.9,9.7-1.8
			c1.1,0.3,2.3,0.6,3.4,1c1-2.9,0.7-3.7-1.6-4.5c-3.1-1.1-6-0.7-8.9,0.8c-5.1,2.7-10.2,5.6-15.5,8c-3.7,1.6-7.6,2.6-11.5,3.7
			c-1.9,0.6-4,1.1-5.8-0.5c-2.1-1.9-3.5-4.3-3.5-7.2c0-2.3,0.3-4.5,0.7-6.7c0.5-2.6,1.8-4.7,4.3-5.8c3.1-1.3,6.2-2.3,9.5-3.5
			c0.4,1,0.6,1.8,0.8,2.5c3.5-1.2,5.7-5.2,5.3-9.5c-0.2-2.6-1.1-3.6-3.9-4.3c-0.1,0-0.2,0.1-0.5,0.4c0.6,1.3,2.3,2.4,1.5,4.2
			c-0.4,0.9-1,1.7-1.9,2.9c-0.9-1.6-1.4-2.5-1.9-3.5c-4.8-0.2-4.8-0.2-16.3,6.4c-0.9-1-1.7-2.1-2.7-3.2c-0.8-0.9-1.6-1.8-2.5-2.5
			c-1.7-1.2-3.3-0.9-4.7,0.8c-1,1.3-1.5,2.7-1.6,5.3c2.4-1.8,3.4-1.7,5.6,0.4c3.2,3.1,5.4,6.5,4.9,11.3c-0.4,4.4-0.1,8.8,2.1,12.7
			c-4.2,2.4-8.2,1.4-10.6-2.7c-1.3-2.2-2.1-4.8-2.8-7.3c-1.1-4.2-1.6-8.4-1.6-12.7c0-4.3,1.3-8,4.1-11.1c2.6-2.8,5.4-5.4,8.2-8
			c2.3-2,3.9-4.3,5.1-7.2c3.8-9,7.9-17.8,11.6-26.8c1.5-3.6,2.3-7.5,3.4-11.2C130.7,313.3,130.4,309.8,127,307.1z M188.3,337.5
			c-0.2-0.2-0.4-0.3-0.6-0.5c0,0.3,0.1,0.6,0.1,0.9c0.2,1.1,0.4,2.3,0.7,3.5c-5.6,4.5-10.9,8.9-16.3,13.2c-1.6,1.3-2.3,2.5-1.5,5
			c5.3-3.7,10.4-7.2,15.4-10.7c1.7-1.2,3.2-2.4,5.5-2.4c0.4,0.4,0.8,0.8,1.2,1.3c6.5,6.1,14.3,6.9,22.3,4.6
			c6.1-1.7,9.3-6.7,11.1-12.6c1.9-6.3,1.7-12.7,1.5-19.1c0-0.7-0.2-1.4-0.3-2.2c-1.1,1.2-1.5,2.3-1.9,3.6c-1.5,4.9-2.6,9.9-4.5,14.7
			c-2.5,6.4-7.6,9.5-14.5,9.5c-5.1,0-9.6-1.8-13.6-4.7C191.4,340.1,189.9,338.8,188.3,337.5z M123.5,358.3
			c5.4,0.2,10.3-0.9,14.8,2.1c4.2,2.8,7.6,6.1,8.2,11.7c8.9-1.4,13.3,4.2,17.2,11.2c0.6-3.4-0.2-6-1.6-8.4
			c-2.9-4.7-7.4-6.8-12.3-8.2C145.6,354.8,133.4,352.7,123.5,358.3z M136.4,314.7c-1.4,3.8-2.7,7.2-4,10.6
			c-2.2,5.7-4.5,11.5-6.7,17.2c-0.4,1-0.8,2-0.8,3.1c-0.1,1.1,0.2,2.3,0.4,3.4c0.9-0.5,1.2-1,1.4-1.5c3.9-9.1,7.8-18.3,11.6-27.4
			c0.5-1.2,0.5-2.7,0.8-4.1C138,315.4,137.2,315.1,136.4,314.7z"/>
		<path class="st18" d="M264.1,227.1c-3.7,4.5-5.6,9.8-7.3,15.1c-6.7,2.4-13.3,4.8-20.1,7.2c-1.1-2.4-1.9-4.8-1.8-7.5
			c0.1-4.2,0.4-8.3,0.6-12.5c0.1-1.9,0-3.8-0.2-5.7c-4.6,10-8.8,20.1-7.2,32c-1.8,2-3.8,4.1-5.7,6.4c-2.1,2.5-4,5.1-6,7.6
			c-0.6,0.7-1.2,1.6-1.9,1.9c-6.7,2.6-19.2,4.6-27.5,3.2c0.4-4.4,1.1-8.8,2.4-13.1c3.1-10.6,8.5-20.1,15.6-28.6
			c12.6-15.3,29-24.2,48.3-28.2c10.7-2.2,21.5-2.6,32.4-1.9c18.2,1.2,34.4,7.4,48.6,19.1c12.3,10.2,19.9,23.2,23.2,38.7
			c1.6,7.6,1.7,15.3,1,23.1c-0.9,9.4-3,18.4-6.5,27.2c-3.1,7.8-8.2,13.9-14.3,19.3c-2.3,2-4.9,3.8-7.4,5.6
			c-7.2,5.3-15.5,7.6-24.1,8.9c-7.7,1.2-15.5,1.2-23.2,0.5c-15.5-1.3-27.1-8.7-33.8-23.1c-3.3-7.1-5.1-14.6-4.8-22.4
			c0.1-2.4,0.6-4.7,2-6.7c1.1-0.9,2.2-1.8,3.5-2.8c0.4,0.2,1,0.5,1.6,0.7c-0.3,0.7-0.5,1.4-0.8,2.2c-0.8,0-1.6,0.1-2.2,0.1
			c0.1,1.4,0.2,2.6,0.2,3.7c0,2.7,0,5.5,0,8.2c0,1.4,0.1,2.8,1.5,3.7c1.5,4.1,2.7,8.3,5.2,12c6.4,9.5,15.1,15.1,26.5,16.8
			c11.3,1.6,22.1-0.3,32.2-5.2c16.2-8,28.3-19.8,32.4-38c1.8-7.9,2.2-16-0.4-24c-0.1-0.4-0.4-0.9-0.6-1.3c-0.1-0.3-0.3-0.6-0.5-1
			c-1.4,0.8-0.9,2.1-0.9,3.2c0.1,7.9-0.8,15.7-3.1,23.2c-0.6,2.2-1.4,4.3-2.4,6.3c-5.4,10.3-12.4,19.2-23,24.6
			c-0.4,0.2-0.9,0.4-1.3,0.6c-0.1,0-0.2,0-0.8-0.1c-0.4-1.2-0.8-2.6-1.3-4c-0.3-0.8-0.4-2.1-1.9-1.6c-1.9,0.2-2.2,1.3-1.7,2.9
			c0.4,1.2,0.8,2.4,1.3,3.7c-1.9,0.5-3,1.3-3.1,3.1c-4.9,2.4-10,3.3-15.6,3.1c-0.1-2.7-0.3-5.2-0.4-7.7c-0.2,0-0.5-0.1-0.7-0.1
			c-0.9,2.5-1.8,5-2.7,7.4c-5.6,1.9-17.1-1.4-22.3-6.5c0.8-2,1.6-4.2,2.4-6.3c-0.2-0.1-0.4-0.2-0.6-0.3c-1.4,1.6-2.7,3.2-4.1,4.8
			c-9.4-6.2-12.6-21.1-6.3-30c1.2,1.7,2.3,3.3,3.5,4.9c2.9,3.9,6.2,7.2,10.3,9.8c6.4,4,13.2,5,20.5,3c0.9-0.2,1.9-0.3,2.8-0.5
			c3.2,0.6,5.7-0.8,8-2.7c0.8-0.7,1.5-1.6,2.2-2.5c2.1-1.9,4.3-3.8,6.2-5.8c3.5-3.6,5-8.3,6.7-12.8c0.6-1.5,1.1-3.1,1.7-4.5
			c4.7-0.8,8.9,0.3,13,1.8c-3.2-4-7.6-5.2-12.7-5.7c-0.5-4.5-1-9.1-1.5-13.8c4.7-0.9,8.9-0.5,13.1,0.4c0.4,0.2,0.8,0.4,1.2,0.6
			c0.1-0.2,0.1-0.3,0.2-0.5c-0.4-0.2-0.7-0.3-1.1-0.5c-1-2.3-3.2-3.1-5.2-3.9c-2.7-1.2-5.6-1.8-8.7-1.6c-1.3,0.1-2.3-0.2-3-1.4
			c-4.5-7.3-11.1-12.2-18.8-15.7c-0.3-0.1-0.6-0.3-1-0.6c0.7-1.3,1.4-2.5,2.1-3.8c3.4-3.4,6.9-6.8,11.7-8.4c-5.4,0-10,1.8-14,5.4
			c-2.1,1.8-4.3,3.6-6.9,5.8c-7.2-0.3-15,0.2-22.8-0.3c-0.1-5.2,1.4-9.7,3.2-14c1.9-2.9,3.8-5.7,5.7-8.6c0.2-0.3,0.4-0.7,0.6-1
			c-0.2-0.1-0.3-0.1-0.5-0.2c0,0.4-0.1,0.8-0.1,1.2c-0.7,0.1-1.5,0.1-1.9,0.5C268.2,221.4,265.7,223.9,264.1,227.1z"/>
		<path class="st19" d="M238.3,529.1c-4.3-7.3-8.5-14.6-12.8-21.8c-3.3-5.5-6.5-11.1-10.1-16.4c-3-4.6-7.6-6.9-12.8-8.1
			c-1.4,1.6-1.3,2.9-1,4.6c3.1,14.3,6.1,28.6,9.1,43c0.9,4.4,1.9,8.8,2.8,13.3c0.8,3.7-1.6,6.2-5.4,5.8c-3.8-0.5-7.1-2.2-9.8-4.9
			c-5.7-5.7-10-12.4-12.3-20.2c-1.8-6.2-1-12.2,0.3-18.3c1.2-5.8,2.5-11.7,3.1-17.6c0.4-4-0.3-8.1-0.7-12.1
			c-0.3-2.6-0.8-5.2-1.4-7.7c-2.5-11-8.1-20.3-16.8-27.5c-1.8-1.5-3.6-3.2-5.1-5c-3.4-4.1-2.5-7.4,2.3-9.6c2.2-1,4.4-1.4,6.9-0.8
			c8.2,1.9,15.3,5.8,22.1,10.6c4.7,3.3,9.2,6.8,13.8,10.2c0.4,0.3,1,0.5,1.8,0.9c1-4.7,0.6-8.8-1.5-12.7
			c-3.6-6.5-7.3-12.8-10.9-19.2c-0.6-1-1.1-2-2-3.6c1.3,0.3,1.9,0.4,2.5,0.6c14.3,5.7,28.2,12.2,40.6,21.4
			c8.9,6.6,16.6,14.4,23.2,23.2c4.5,6,6.8,13.1,9.7,19.8c0.3,0.8,0.8,1.5,0.9,2.3c0.2,1.2,0.2,2.5-0.4,3.9c-0.5-0.6-1-1.1-1.4-1.8
			c-8.1-13.3-18.5-24.2-32.2-31.9c-2.5-1.4-5.1-2.5-7.8-3.6c-1-0.4-2.2-0.5-3.4-0.7c3.9,4.5,7.5,9,11.4,13.2
			c8.5,9.1,13.5,20.1,18.3,31.3c1.1,2.7,1.4,5.8,1.8,8.7c1.3,9.3,2.4,18.7,2.4,28.1c0,2.5-0.3,5-1.1,7.6c-2.2-4.5-4.5-9.1-6.7-13.6
			c-7.2-14.4-14.6-28.6-23-42.4c-3.3-5.4-6.6-10.8-11.3-15.1c-1.5-1.4-3-3-5.6-3.5c1.8,5.3,3.5,10.2,5.2,15.2
			c5.7,17,11.4,34,17.1,51c0.3,1,0.6,2,0.9,3.1C238.7,528.8,238.5,528.9,238.3,529.1z"/>
		<path class="st20" d="M242,197c-5.1,1.3-10,2.7-14.8,4.9c-6.2,2.8-11.9,6.5-17.1,10.8c-8.6,7.1-15,15.9-19.9,25.8
			c-2.9,5.9-5.1,12-5.6,18.6c-0.5,5.9-1.2,11.8-2,17.7c-0.7,5.3-6.3,8.1-11,5.6c-5.8-3.1-8.8-9.6-7-15.9
			c4.1-14.1,9.9-27.5,17.9-39.8c3.4-5.3,7.3-10.3,11.6-14.9c7.5-8,16.5-14,26.9-17.7c5.6-2,11.2-3.9,16.9-5.4c4-1,8.2-1.4,12.3-1.9
			c5.7-0.6,11.4-1.2,17-1.6c2.6-0.2,5.2-0.1,7.8,0.2c10.7,1.4,21.2,3.6,31.5,7.2c0.8,0.3,1.5,0.6,2.3,1c0.4,0.2,0.8,0.5,1.1,0.6
			c0,3,0,5.8,0,9.2c-8.4-2.9-16.5-4.6-24.8-6c0-1.8-1.3-1.3-2.3-1.3c-8.1,0-16.2-0.1-24.3,0.1c-2.8,0.1-5.9-1.3-8.4,1.2
			c-0.1,0.1-0.5,0-0.7-0.1c-2.4-1.3-4.5,0.9-6.9,0.5C242.4,195.9,242.2,196.6,242,197z"/>
		<path class="st21" d="M266.1,433.1c2.1,5.2,4.3,10.3,6.4,15.5c1.1,2.8,1.5,5.1,1.2,8.3c-0.8-0.8-1.5-1.4-2-2.1
			c-2.7-3.5-5.4-7-8-10.6c-7-9.9-15.8-18.1-24.8-26.1c-0.9-0.8-2-1.2-3-1.8c-1.4-0.9-2.7-1.8-4.4-2.9c5.5-1.1,9.2-0.1,17.5,4.5
			c-1.7-11.1-1.3-21.8,4.4-32c0.6,0.2,1,0.3,1.4,0.6c12.6,8.5,24.5,17.8,34.4,29.5c8.2,9.7,14.5,20.6,18.3,32.8
			c0.3,1.1,0.3,2.3,0.5,3.7c-2.1-0.2-2.9-1.6-3.7-2.9c-7.8-12-18.2-21.4-29.5-29.8c-1.4-1.1-2.9-2-4.4-3c-0.2,0.1-0.4,0.3-0.6,0.4
			c0.3,0.6,0.5,1.4,0.9,1.8c3.7,3.3,7.5,6.6,11.2,9.9c1.7,1.5,3.5,3,4.8,4.7c7.5,9.5,13.8,19.7,15.7,32c0.4,2.4,0.3,5,0.2,7.4
			c0,0.5-0.6,0.9-0.8,1.3c-2-0.1-2-1.7-2.4-2.9c-2.9-7.7-6.9-14.9-11.2-21.9c-5.1-8.4-12.4-14-21.7-17.1c-0.3-0.1-0.6-0.1-0.9-0.2
			C265.9,432.6,266,432.9,266.1,433.1z"/>
		<path class="st18" d="M128,265.7c2.3-4.1,5.7-7.2,9.7-10.7c-6.8,1.7-10.9,6.5-16.4,9.8c-0.5-2.4-1-4.5-1.4-6.6
			c-0.7-4.2-1.2-8.4-1.9-12.7c-0.3-1.9,0.9-3.2,2.2-4.2c3-2.4,6-4.6,9-6.9c0.7-0.6,1.5-1.1,2.1-1.8c-5.1,0.1-9.4,2.6-14.3,4.7
			c0.3-4.8,0.4-9.2,0.9-13.5c0.4-3.1,2.7-5.3,4.9-7.2c5.7-5,12.2-7.7,19.9-7.2c1.9,0.1,3.7,0.5,5.8,0.9c0.3,0.9,0.8,1.7,0.8,2.6
			c0.3,3.9,0.5,7.8,0.8,11.7c0.6,6.5,0.1,13.1-0.1,19.6c-0.3,7.8-0.8,15.7-1.4,23.5c-0.1,1.8-0.9,3.6-1.4,5.5
			c-0.6,0-1.1,0.1-1.6,0.1c-0.4,1-0.7,2.1-1.3,2.7c-1.2,1.3-1.5,2.7-1.3,4.4l0,0c-0.2,0.3-0.4,0.7-0.7,1c0,0.1,0,0.2,0,0.4
			c-0.5-0.4-0.9-0.7-1.5-1.2c0,1.2,0,2.3,0,3.4c0,0.2-0.1,0.4-0.2,0.5c-3.2,0.2-3.2,0.2-2.6,2.9l0,0c-0.7,0.1-1.5,0-2,0.3
			c-4.5,2.3-5.2,2.1-8-2.2c-0.3-0.5-1-0.6-1.6-0.9l0,0c0.2-1.7,0.2-3.3-1.4-4.4c-0.1-0.1-0.1-0.3,0-0.4c-0.1-1.3,0.1-2.6-0.3-3.8
			c-0.4-1.4-0.2-2.3,0.5-3.6C126.5,270.3,127.1,268,128,265.7z"/>
		<path class="st22" d="M35,354.7c3.8,2,7.5,4,11.3,5.9c6,3,12.5,2.8,18.8,1.7c5.6-1,11-2.9,16.4-4.6c4.6-1.5,8.4-4.3,12-7.5
			c7.2-6.3,12.7-13.9,17.6-21.9c1.6-2.6,3.2-5.1,4.9-7.7c0.2,0.1,0.5,0.2,0.7,0.3c-0.6,3.1-1,6.3-1.7,9.3c-1.4,5.9-3,11.7-5.4,17.3
			c-2.5,5.6-5.7,10.7-9.9,15.2c-0.4,0.4-0.9,0.7-1.4,1c-2.6-0.8-2-3.7-4.1-5.5c0,2.8-0.1,5,0,7.2c0.1,1.6-0.4,2.7-1.6,3.7
			c-3.8,3.3-8.3,5.1-12.9,6.5c-1.3,0.4-2.7,0.6-4.4,1c-0.8-2.5-1.5-4.8-2.3-7.5c-2,2.6-1.5,5.7-2.6,8.6c-5.5,0.2-11.2,1.4-16.9-0.8
			c0-2.1,0-4.1,0-6.4c-2.9,1.4-2.3,4.4-3.7,6.3c-6.6-0.4-12.2-2.9-17.3-6.8c0.2-0.2,0.3-0.4,0.5-0.6c-0.4,0-0.8-0.1-1.2-0.1l0,0
			c0-0.5,0-1-0.1-1.4c-1-2.5-0.6-4.7,1.3-6.4c-0.5-1.8-1.7-2.3-3.2-2.4C30.7,356.5,33,355.8,35,354.7z"/>
		<path class="st23" d="M266.3,272.4c-5.4-1-9.3,1.4-12.8,4.5c-3.8,3.3-6.6,7.5-9.2,11.8c-1.3,2.2-2.6,4.5-3.9,6.9
			c-1.6-0.9-1.5-2.4-1.7-3.5c-0.9-7.1,0.5-13.4,5.9-18.6c6-5.9,12.5-11,20.5-14c6.8-2.5,13.7-2.8,20.8-1.5c2.7,0.5,4.1,1.9,4.8,4.5
			c2.7,10.3,0.2,19.4-6.5,27.3c-2.6,3.1-5.7,5.8-8.8,8.3c-4.7,3.8-9.2,1.9-10.5-4c-1.2-5.1-0.3-10.2,0.3-15.3
			C265.4,276.8,265.9,274.8,266.3,272.4z M277.8,273.6c-0.2-0.1-0.4-0.2-0.6-0.3c-1.8,2.3-3.8,4.6-5.4,7c-2,2.9-1.8,6.1-0.4,9.2
			c0.8,1.9,2.4,2.7,3.6,2c2.1-1.2,3.9-2.9,4.3-5.5c-1.6-0.6-3.1,1.7-4.3-0.4c2.7-3.1,7.2-4.8,8.1-9.7c-2.2,0.7-2.9,3.4-5.8,2.6
			C277.4,276.9,277.6,275.2,277.8,273.6z"/>
		<path class="st23" d="M293.8,380.8c-5.5,0.5-10.4-0.4-15.5-2.4c0.6,2.6,2.1,4.1,3.5,5.7c3.8,4.3,7.6,8.5,11.3,12.9
			c5.1,6.1,9,12.9,10.3,20.8c0.1,0.7,0,1.4,0,2.2c-1.7,0-2.4-1.2-3-2.3c-6.9-11.4-16.3-20.4-26.9-28.3c-1.9-1.4-3.5-3.2-4.9-5.1
			c-2-2.6-3.8-5.5-5.5-8.3c-2-3.3-3.4-6.7-4.3-10.5c-1.7-7.2-3.8-14.2-5.6-21.4c-0.4-1.6-0.7-3.2-1-4.7c6.6,3.4,13.1,6.8,19.8,10.2
			c0,0.5,0.1,1.2,0,1.9c-0.5,4,0.9,7.5,3.3,10.6c1.8,2.2,3.7,4.3,5.8,6.2c3.7,3.4,7.5,6.6,11.2,10
			C292.8,379,293.1,379.8,293.8,380.8z"/>
		<path class="st24" d="M235.9,279.5c-1.6-2.6-1.2-5-0.2-7.4c1.8-4.3,4.9-7.6,8.4-10.5c7.1-6,15.1-10.7,23.9-13.9
			c1.1-0.4,2.3-0.9,3.4-1c8.9-0.8,17.6-0.5,25.8,3.7c6.3,3.2,11.1,7.8,13.5,14.6c2.7,7.8,2.1,15.4-1.4,22.8
			c-2.4,5-5.4,9.5-10.3,12.5c-2.1,1.3-3.6,1.8-7.3,2.3c1.5-1.3,2.5-2.2,3.5-3.1c1.9-1.6,4.1-2.9,5.7-4.8c3.5-3.9,6.3-8.4,7.7-13.5
			c2-7.1,0.6-13.7-3.2-19.8c-4.5-7.3-11.1-11.1-19.8-11.5c-12.7-0.5-24.2,2.6-34.6,9.9c-6.2,4.4-11.1,10-13.9,17.2
			C236.7,277.9,236.3,278.6,235.9,279.5z"/>
		<path class="st25" d="M155.4,215.1c0.9,1.3,1.5,1.9,1.8,2.6c2.7,6.9,5.6,13.8,8,20.9c2.3,6.9,0.5,13.2-4.5,18.3
			c-1.6,1.7-3.6,3-6.2,5c0.3-5.8,0.6-10.7,0.8-15.7c0.1-5,0.1-10,0.1-15C155.4,226.1,155.4,221,155.4,215.1z"/>
		<path class="st4" d="M35,354.7c-2.1,1.1-4.4,1.8-5.2,4.4c-0.7,0.9-1.3,1.9-1.7,2.4c-1.4-0.4-2.4-0.7-3.4-1
			c-0.2-0.4-0.5-0.8-0.7-1.3c-0.3-1.1,1.1-3.1-1.5-3c-0.1-0.3-0.3-0.5-0.4-0.8c1-1.2,0.9-1.9-0.8-2.1c-2-6.5-2.6-13.2-1.5-20
			c0.3-1.7,1.2-3.3,2.1-5.5c2.1,3.2,2.8,6.2,3.3,9C26.7,343.9,30.5,349.5,35,354.7z"/>
		<path class="st24" d="M45.1,380.4c2.4,0.1,4.8,0,7.1,0.4c8.5,1.6,17,1.2,25.5-0.1c4.4-0.7,8.9-1.4,13.4-2.2c1.6,2.5,1,4.2-1.7,4.8
			c-12.1,2.6-24.2,3.4-36.4,0.7c-2.7-0.6-5.3-1.7-8-2.6C45.1,381.2,45.1,380.8,45.1,380.4z"/>
		<path class="st26" d="M207,308.5c2.5-0.4,4.8-0.8,6.9-1.2c1.4,1.7,1.2,3.5,0.8,5c-0.8,3.4-2.2,6.5-6,7.8c-1.8,0.6-3.5,1.4-5.3,2
			c-4.6,1.3-7.5,0.2-10.1-3.8c-0.8-1.2-1.4-2.4-2.2-3.9c1.1-0.7,2-1.4,3.1-2.1c1.2,2,2,4.2,4.3,4.6c1.3,0.3,2.8,0.3,4.1,0
			C206,316,207,313.9,207,308.5z"/>
		<path class="st0" d="M376,434.3c0.2,0.8-0.4,1.8,0.8,2.2c0.2,0.3,0.4,0.5,0.7,0.8c0.6,0.2,1.2,0.6,1.8,0.6c3.9,0.1,7.9,0,11.8,0
			c10.2,0,20.5,0,30.7,0c1.4,0,3-0.5,3.6,1.4c-13.6,0-27.2,0-40.8,0c-1.8,0-3.3,0.1-3.5,2.8c0.8,0.4,1.8,1,2.8,1.5l0,0
			c0,0.5,0,1,0,1.4c-1.7,0-3.3,0-5,0c0.1-1.2,0.3-2.5,0.4-4.1c-1.3-0.8-2.9-1.8-4.8-2.9C375.3,436.9,373.2,434.9,376,434.3z"/>
		<path class="st25" d="M312.4,194c5,1.8,8.7,5.1,12.9,8.2c-0.1,1.5-0.2,3.1-0.2,5c-4.4-1.5-8.4-3-12.7-4.4
			C312.4,199.9,312.4,197.1,312.4,194z"/>
		<path class="st7" d="M425.5,439.4c-0.6-1.9-2.2-1.4-3.6-1.4c-10.2,0-20.5,0-30.7,0c-3.9,0-7.9,0-11.8,0c-0.6,0-1.2-0.4-1.8-0.6
			c16.1,0,32.1,0,48.4,0c0.1,0.7,0.3,1.3,0.3,2c0,18.8,0,37.6,0,56.4c0,0.7-0.2,1.4-0.3,2.1c-0.1-0.1-0.3-0.3-0.4-0.4
			c-0.2-0.2-0.5-0.5-0.7-0.7c0-1.9,0-3.8,0-5.7c0.2-0.8,0.7-1.7,0.7-2.5c0-15.9,0-31.8,0-47.7C425.4,440.3,425.5,439.8,425.5,439.4z
			"/>
		<path class="st15" d="M242,197c0.2-0.4,0.4-1.2,0.5-1.2c2.3,0.4,4.5-1.8,6.9-0.5c0.2,0.1,0.6,0.2,0.7,0.1c2.5-2.5,5.6-1.1,8.4-1.2
			c8.1-0.2,16.2-0.1,24.3-0.1c1,0,2.3-0.4,2.3,1.3c-3.8-0.2-7.6-0.5-11.4-0.7c-7.6-0.3-15.2,0.3-22.8,1.3
			C247.9,196.7,244.9,196.8,242,197z"/>
		<path class="st27" d="M293.5,235.8c4-3.6,8.6-5.5,14-5.4c-4.8,1.6-8.3,5-11.7,8.4C295.7,236,295.7,236,293.5,235.8z"/>
		<path class="st15" d="M336.4,214.5c-3-2-6-4-8.8-5.9c0-1.6,0-2.9,0-4.6c3.8,3.2,7.1,6.2,9.2,10.2
			C336.6,214.3,336.5,214.4,336.4,214.5z"/>
		<path class="st24" d="M24.7,360.6c1,0.3,2,0.6,3.4,1c0.4-0.6,1.1-1.5,1.7-2.4c1.5,0.1,2.7,0.6,3.2,2.4c-1.9,1.7-2.3,3.9-1.3,6.4
			c0.2,0.4,0.1,0.9,0.1,1.4c-1.4-0.1-2.1-0.9-2.1-2.3c0-1.3,0-2.6,0-4.4c-0.8,0.9-1.4,1.5-2.1,2.4C26.7,363.4,25.7,362,24.7,360.6z"
			/>
		<path class="st27" d="M272.8,218.6c-1.9,2.9-3.8,5.7-5.7,8.6c-1,0-2,0-3-0.1c1.6-3.2,4.1-5.8,6.8-8.1
			C271.4,218.7,272.2,218.8,272.8,218.6L272.8,218.6z"/>
		<path class="st24" d="M126.5,284.6c0.5,0.3,1.3,0.5,1.6,0.9c2.8,4.3,3.5,4.5,8,2.2c0.6-0.3,1.4-0.2,2-0.3c-0.5,0.6-1,1.3-1.6,1.9
			c-2.7,2.4-6.1,2.2-8.3-0.6C127.4,287.5,127.1,286,126.5,284.6z"/>
		<path class="st9" d="M251.2,291c-0.6-0.3-1.2-0.5-1.6-0.7c-1.3,1-2.4,1.9-3.5,2.8c2-4.4,5.4-7.5,9.4-8.5
			C254,286.8,252.6,288.9,251.2,291z"/>
		<path class="st24" d="M249.9,308.9c-1.4-0.9-1.5-2.3-1.5-3.7c0-2.7,0-5.5,0-8.2c0-1.2-0.1-2.3-0.2-3.7c0.6,0,1.4-0.1,2.2-0.1
			c-0.9,4.3-1.9,8.5-0.6,12.9C250,306.9,249.9,307.9,249.9,308.9z"/>
		<path class="st24" d="M128,265.7c-0.9,2.3-1.5,4.6-2.7,6.7c-0.7,1.3-0.9,2.2-0.5,3.6c0.4,1.2,0.2,2.5,0.3,3.8
			C122.6,274.7,123.4,270.5,128,265.7z"/>
		<path class="st9" d="M306.5,330.1c0.1-1.8,1.2-2.6,3.1-3.1c-0.5-1.3-0.9-2.5-1.3-3.7c-0.5-1.6-0.2-2.8,1.7-2.9
			c0,1.3-0.1,2.6,0.1,3.9C310.7,327.4,309.4,329.2,306.5,330.1z"/>
		<path class="st9" d="M303.6,306.5c-0.7,0.8-1.4,1.8-2.2,2.5c-2.3,1.9-4.8,3.3-8,2.7C296.8,310,300.2,308.2,303.6,306.5z"/>
		<path class="st24" d="M143.2,280.3c-0.3-1.7,0-3.1,1.3-4.4c0.6-0.7,0.8-1.7,1.3-2.7c0.5,0,1-0.1,1.6-0.1
			C145.9,275.5,144.6,277.9,143.2,280.3z"/>
		<path class="st24" d="M138.1,287.5c-0.6-2.8-0.6-2.8,2.6-2.9C139.9,285.5,139,286.5,138.1,287.5z"/>
		<path class="st24" d="M125.1,280.2c1.7,1.1,1.6,2.7,1.4,4.4C126.1,283.2,125.6,281.7,125.1,280.2z"/>
		<path class="st24" d="M141,284c0-1.1,0-2.2,0-3.4c0.5,0.4,1,0.8,1.5,1.2C142,282.5,141.5,283.2,141,284z"/>
		<path class="st24" d="M22.6,356.3c2.6,0,1.2,1.9,1.5,3C23.5,358.3,23.1,357.3,22.6,356.3z"/>
		<path class="st24" d="M21.4,353.3c1.7,0.2,1.8,1,0.8,2.1C21.9,354.8,21.6,354.1,21.4,353.3z"/>
		<path class="st7" d="M424.1,499.7c0.2-0.8,0.4-1.6,0.6-2.3l0,0l0.4,0l0.4,0c0.1,0.1,0.3,0.3,0.4,0.4
			C425.3,498.4,424.7,499.1,424.1,499.7z"/>
		<path class="st15" d="M336.7,214.2c0.3,0.4,0.6,0.7,0.9,1.1c-0.1,0.1-0.2,0.2-0.4,0.3c-0.3-0.4-0.6-0.7-0.9-1.1
			C336.5,214.4,336.6,214.3,336.7,214.2z"/>
		<path class="st24" d="M31.9,369.2c0.4,0,0.8,0.1,1.2,0.1c-0.2,0.2-0.3,0.4-0.5,0.6C32.4,369.7,32.1,369.4,31.9,369.2z"/>
		<path class="st19" d="M238.9,528.6c0,0.3,0.1,0.6,0.1,0.9c-0.2-0.1-0.5-0.3-0.7-0.4C238.5,528.9,238.7,528.8,238.9,528.6z"/>
		<path class="st24" d="M142.5,281.3c0.2-0.3,0.4-0.7,0.7-1C143,280.7,142.8,281,142.5,281.3z"/>
		<path class="st6" d="M378.9,445.1c1.7,0,3.3,0,5,0c9.8,0,19.5,0,29.3,0c1,0,1.9-0.1,2.8,0.1c0.4,0.1,0.6,0.8,0.9,1.3l-0.1,0.1
			c-12.9,0-25.7,0-38.6-0.1c-2,0-4,0-5.7-1.4C374.7,445.1,376.8,445.1,378.9,445.1z"/>
		<path class="st13" d="M417,446.5c-0.3-0.5-0.5-1.2-0.9-1.3c-0.9-0.2-1.9-0.1-2.8-0.1c-9.8,0-19.5,0-29.3,0c0-0.5,0-1,0-1.4
			c11.4,0,22.8,0,34.4,0c-0.1-1.2-0.1-1.9-0.2-2.7c-11.5,0-22.7,0-34.2,0c0,1,0,1.8,0,2.7c-1-0.5-2-1.1-2.8-1.5
			c0.2-2.7,1.7-2.8,3.5-2.8c13.6,0.1,27.2,0,40.8,0c0,0.5,0,0.9,0,1.4c-0.8,0-1.4,0.2-1.4,1.2c0,1.6,0,3.2,0,4.8c0,14,0,28,0,42.1
			c0,0.7,0.4,1.4,0.7,2.2c0,1.9,0,3.8,0,5.7c0,0.2,0,0.5,0,0.7l0,0c-2.1,0-3.5,1.4-4.9,3c-0.8-0.6-1.6-1.1-2.3-1.6
			c0.6-0.2,1.3-0.3,2-0.5c0.3-0.8,0.7-1.8,1-2.8c0.2-0.6,0.3-1.4,0.1-1.9c-0.8-2,0.3-2.7,1.8-3.2c0-15.1,0-30,0-45.1
			c-0.8-0.1-1.6-0.2-2.8-0.3c0,15.4,0,30.5,0,45.9c-1.9-0.5-1.4-1.6-1.4-2.4c0-9.9,0-19.8,0-29.7c0-3.5,0-6.9,0-10.4
			C418.3,447.4,418.3,446.5,417,446.5z M419.8,441.1c0.2,2.5,0.2,2.5,2.5,2.2C422.4,440.9,422.4,440.9,419.8,441.1z"/>
		<path class="st13" d="M413,505.3c-1.3-0.5-2.2-0.7-3-1.2c-0.2-0.1,0.2-1.1,0.4-1.6c1.6,0.9,1.7-0.6,2.1-1.4c1.1-2,2.6-3.2,5.1-3.4
			C417.4,501.2,413.3,502,413,505.3z"/>
		<path class="st13" d="M409.7,509.5c-1.6,0.4-2.6,0.7-4,1.1c-0.2-0.3-0.6-0.9-0.9-1.5c0.9-1.2,1.8-2.4,2.7-3.8
			C409.4,506.2,409.7,507.9,409.7,509.5z"/>
		<path class="st3" d="M369.6,438.6c-0.2-1.4-0.5-2.9-0.7-4.3c0.4,0.2,1.2,0.3,1.2,0.5C370.2,436.1,370.9,437.5,369.6,438.6z"/>
		<path class="st3" d="M376,432.9c0,0.2,0,0.5,0,0.7c-0.2-0.1-0.4-0.2-0.5-0.4C375.7,433.1,375.8,433,376,432.9z"/>
		<path class="st28" d="M188.3,337.5c1.6,1.3,3.1,2.6,4.7,3.8c4,3,8.5,4.7,13.6,4.7c6.9,0,12-3.1,14.5-9.5c1.8-4.7,3-9.8,4.5-14.7
			c0.4-1.2,0.8-2.4,1.9-3.6c0.1,0.7,0.2,1.4,0.3,2.2c0.2,6.4,0.4,12.9-1.5,19.1c-1.8,5.9-5,10.9-11.1,12.6c-8,2.2-15.8,1.5-22.3-4.6
			c-0.4-0.4-0.8-0.9-1.2-1.3c-2.3,0-3.8,1.3-5.5,2.4c-5,3.6-10.1,7.1-15.4,10.7c-0.8-2.4-0.1-3.7,1.5-5c5.4-4.3,10.8-8.7,16.3-13.2
			c-0.2-1.2-0.5-2.3-0.7-3.5C188,337.8,188.2,337.7,188.3,337.5z"/>
		<path class="st27" d="M123.5,358.3c9.9-5.6,22.1-3.5,26.3,8.4c4.9,1.4,9.4,3.5,12.3,8.2c1.5,2.4,2.3,4.9,1.6,8.4
			c-3.9-7-8.4-12.6-17.2-11.2c-0.6-5.6-4-8.9-8.2-11.7C133.9,357.4,128.9,358.5,123.5,358.3z"/>
		<path class="st27" d="M136.4,314.7c0.9,0.4,1.6,0.7,2.7,1.2c-0.3,1.4-0.3,2.9-0.8,4.1c-3.8,9.2-7.7,18.3-11.6,27.4
			c-0.2,0.5-0.5,1-1.4,1.5c-0.1-1.1-0.5-2.3-0.4-3.4c0.1-1,0.5-2.1,0.8-3.1c2.2-5.7,4.5-11.5,6.7-17.2
			C133.7,321.9,134.9,318.5,136.4,314.7z"/>
		<path class="st28" d="M187.8,337.9c0-0.3-0.1-0.6-0.1-0.9c0.2,0.2,0.4,0.3,0.6,0.5C188.2,337.7,188,337.8,187.8,337.9z"/>
		<path class="st27" d="M272.8,218.6c0-0.4,0.1-0.8,0.1-1.2c0.2,0.1,0.3,0.1,0.5,0.2C273.2,217.9,273,218.2,272.8,218.6L272.8,218.6
			z"/>
		<path class="st10" d="M330.4,265.7c0.4,0.2,0.7,0.3,1.1,0.5c-0.1,0.2-0.1,0.3-0.2,0.5c-0.4-0.2-0.8-0.4-1.2-0.6
			C330.2,265.9,330.3,265.8,330.4,265.7z"/>
		<path class="st10" d="M266.1,433.1c-0.1-0.3-0.2-0.5-0.3-0.8c0.3,0.1,0.6,0.1,0.9,0.2C266.5,432.7,266.3,432.9,266.1,433.1z"/>
		<path class="st27" d="M277.8,273.6c-0.2,1.7-0.4,3.3-0.6,5c2.9,0.8,3.7-1.9,5.8-2.6c-0.9,4.9-5.4,6.5-8.1,9.7
			c1.3,2.1,2.8-0.2,4.3,0.4c-0.4,2.6-2.2,4.3-4.3,5.5c-1.3,0.8-2.8-0.1-3.6-2c-1.4-3.1-1.5-6.3,0.4-9.2c1.7-2.4,3.6-4.7,5.4-7
			C277.4,273.4,277.6,273.5,277.8,273.6z"/>
		<path class="st0" d="M424.8,491c-0.2-0.7-0.7-1.4-0.7-2.2c0-14,0-28,0-42.1c0-1.6,0-3.2,0-4.8c0-1,0.6-1.2,1.4-1.2
			c0,15.9,0,31.8,0,47.7C425.4,489.3,425,490.1,424.8,491z"/>
		<path class="st0" d="M424.8,497.4c0-0.2,0-0.5,0-0.7c0.2,0.2,0.5,0.5,0.7,0.7l-0.4,0L424.8,497.4z"/>
		<path class="st0" d="M383.9,443.7c0-0.8,0-1.6,0-2.7c11.4,0,22.7,0,34.2,0c0,0.7,0.1,1.5,0.2,2.7
			C406.7,443.7,395.3,443.7,383.9,443.7L383.9,443.7z"/>
		<path class="st0" d="M419.8,441.1c2.6-0.1,2.6-0.1,2.5,2.2C420,443.6,420,443.6,419.8,441.1z"/>
	</g>
</g>
</svg>
